<svg xmlns="http://www.w3.org/2000/svg" width="2657.141" height="565.62" viewBox="0 0 2657.141 565.62">
  <g id="Group_182" data-name="Group 182" transform="translate(416 -3552.38)">
    <path id="Union_2" data-name="Union 2" d="M369.285,231.809a127.4,127.4,0,0,1-140.239,3.463,104.544,104.544,0,0,1-108.986,7.472A78.525,78.525,0,1,1,78.23,97.579,104.608,104.608,0,0,1,195.876,49.371,127.339,127.339,0,0,1,420.394,97.69q2.1-.111,4.225-.112a78.521,78.521,0,1,1-55.334,134.23Z" transform="translate(164 3736.38)" fill="#fff"/>
    <path id="Union_3" data-name="Union 3" d="M369.285,231.809a127.4,127.4,0,0,1-140.239,3.463,104.544,104.544,0,0,1-108.986,7.472A78.525,78.525,0,1,1,78.23,97.579,104.608,104.608,0,0,1,195.876,49.371,127.339,127.339,0,0,1,420.394,97.69q2.1-.111,4.225-.112a78.521,78.521,0,1,1-55.334,134.23Z" transform="translate(555 3831.38)" fill="#fff"/>
    <path id="Union_4" data-name="Union 4" d="M369.285,231.809a127.4,127.4,0,0,1-140.239,3.463,104.544,104.544,0,0,1-108.986,7.472A78.525,78.525,0,1,1,78.23,97.579,104.608,104.608,0,0,1,195.876,49.371,127.339,127.339,0,0,1,420.394,97.69q2.1-.111,4.225-.112a78.521,78.521,0,1,1-55.334,134.23Z" transform="translate(876 3763.38)" fill="#fff"/>
    <path id="Union_5" data-name="Union 5" d="M369.285,231.809a127.4,127.4,0,0,1-140.239,3.463,104.544,104.544,0,0,1-108.986,7.472A78.525,78.525,0,1,1,78.23,97.579,104.608,104.608,0,0,1,195.876,49.371,127.339,127.339,0,0,1,420.394,97.69q2.1-.111,4.225-.112a78.521,78.521,0,1,1-55.334,134.23Z" transform="translate(1216 3863.38)" fill="#fff"/>
    <path id="Union_6" data-name="Union 6" d="M369.285,231.809a127.4,127.4,0,0,1-140.239,3.463,104.544,104.544,0,0,1-108.986,7.472A78.525,78.525,0,1,1,78.23,97.579,104.608,104.608,0,0,1,195.876,49.371,127.339,127.339,0,0,1,420.394,97.69q2.1-.111,4.225-.112a78.521,78.521,0,1,1-55.334,134.23Z" transform="translate(-290 3732.38)" fill="#fff"/>
    <path id="Union_7" data-name="Union 7" d="M369.285,231.809a127.4,127.4,0,0,1-140.239,3.463,104.544,104.544,0,0,1-108.986,7.472A78.525,78.525,0,1,1,78.23,97.579,104.608,104.608,0,0,1,195.876,49.371,127.339,127.339,0,0,1,420.394,97.69q2.1-.111,4.225-.112a78.521,78.521,0,1,1-55.334,134.23Z" transform="translate(-416 3552.38)" fill="#fff"/>
    <path id="Union_8" data-name="Union 8" d="M369.285,231.809a127.4,127.4,0,0,1-140.239,3.463,104.544,104.544,0,0,1-108.986,7.472A78.525,78.525,0,1,1,78.23,97.579,104.608,104.608,0,0,1,195.876,49.371,127.339,127.339,0,0,1,420.394,97.69q2.1-.111,4.225-.112a78.521,78.521,0,1,1-55.334,134.23Z" transform="translate(1574 3763.38)" fill="#fff"/>
    <path id="Union_9" data-name="Union 9" d="M369.285,231.809a127.4,127.4,0,0,1-140.239,3.463,104.544,104.544,0,0,1-108.986,7.472A78.525,78.525,0,1,1,78.23,97.579,104.608,104.608,0,0,1,195.876,49.371,127.339,127.339,0,0,1,420.394,97.69q2.1-.111,4.225-.112a78.521,78.521,0,1,1-55.334,134.23Z" transform="translate(1738 3605.38)" fill="#fff"/>
  </g>
</svg>
