<svg id="full-size" xmlns="http://www.w3.org/2000/svg" width="45.001" height="45" viewBox="0 0 45.001 45">
  <defs>
    <style>
      .cls-1 {
        fill: #fff;
      }
    </style>
  </defs>
  <path id="Path_529" data-name="Path 529" class="cls-1" d="M1.343,11.654a1.343,1.343,0,0,0,1.343-1.343V4.586l8.648,8.646a1.343,1.343,0,1,0,1.9-1.9L4.584,2.687H10.31A1.343,1.343,0,1,0,10.31,0H1.343A1.343,1.343,0,0,0,0,1.345v8.967A1.343,1.343,0,0,0,1.343,11.654Z" transform="translate(0 -0.002)"/>
  <path id="Path_530" data-name="Path 530" class="cls-1" d="M150.3,139.992a1.343,1.343,0,0,0-1.343,1.343v5.725l-8.914-8.914a1.343,1.343,0,0,0-1.9,1.9l8.914,8.914h-5.724a1.343,1.343,0,1,0,0,2.685H150.3a1.343,1.343,0,0,0,1.343-1.343v-8.966A1.343,1.343,0,0,0,150.3,139.992Z" transform="translate(-106.644 -106.643)"/>
  <path id="Path_531" data-name="Path 531" class="cls-1" d="M11.6,138.145,2.69,147.059v-5.725a1.343,1.343,0,0,0-2.685,0V150.3a1.343,1.343,0,0,0,1.343,1.343h8.966a1.343,1.343,0,1,0,0-2.685H4.589l8.913-8.914a1.343,1.343,0,1,0-1.9-1.9Z" transform="translate(-0.004 -106.643)"/>
  <path id="Path_532" data-name="Path 532" class="cls-1" d="M151.529,0h-8.966a1.343,1.343,0,1,0,0,2.685h5.725l-8.646,8.647a1.343,1.343,0,0,0,1.9,1.9l8.646-8.647v5.725a1.343,1.343,0,0,0,2.685,0V1.345A1.343,1.343,0,0,0,151.529,0Z" transform="translate(-107.871 -0.002)"/>
</svg>
