<svg id="books-stack" xmlns="http://www.w3.org/2000/svg" width="52.528" height="45" viewBox="0 0 52.528 45">
  <defs>
    <style>
      .cls-1 {
        fill: #fff;
      }
    </style>
  </defs>
  <path id="Path_528" data-name="Path 528" class="cls-1" d="M0,95.99a5.985,5.985,0,0,0,5.978,5.978H49.207V99.311H46.439V92.669h2.768V91.507h3.321V88.85H50.535V82.208h1.993V79.551H50.369v-2.27l-3.28-6.144h3.446V67.564l-8.669-10.6H11.281L3.393,69.4A5.949,5.949,0,0,0,7.082,79.988,5.935,5.935,0,0,0,5.451,90.065,5.965,5.965,0,0,0,0,95.99ZM3.819,74.017a3.31,3.31,0,0,1,1.7-2.88H45.11v6.2H7.14A3.326,3.326,0,0,1,3.819,74.017ZM9.3,82.208H47.878V88.85H9.3a3.321,3.321,0,1,1,0-6.642ZM5.978,92.669h37.8v6.642H5.978a3.321,3.321,0,0,1,0-6.642Z" transform="translate(0 -56.968)"/>
</svg>
