<svg id="shield" xmlns="http://www.w3.org/2000/svg" width="41.877" height="49.177" viewBox="0 0 41.877 49.177">
  <defs>
    <style>
      .cls-1 {
        fill: #fff;
      }
    </style>
  </defs>
  <path id="Path_524" data-name="Path 524" class="cls-1" d="M41.829,13.342V13.3c-.021-.472-.036-.972-.044-1.528A5.212,5.212,0,0,0,36.875,6.67,20.225,20.225,0,0,1,23.11.868l-.032-.03a3.147,3.147,0,0,0-4.277,0l-.032.03A20.227,20.227,0,0,1,5,6.67,5.212,5.212,0,0,0,.1,11.776C.088,12.328.073,12.828.052,13.3l0,.089C-.061,19.158-.2,26.334,2.2,32.847A24.765,24.765,0,0,0,8.144,42.1a31.079,31.079,0,0,0,11.626,6.877,3.6,3.6,0,0,0,.477.13,3.519,3.519,0,0,0,1.384,0,3.612,3.612,0,0,0,.478-.131A31.1,31.1,0,0,0,33.724,42.1a24.8,24.8,0,0,0,5.941-9.256C42.074,26.308,41.938,19.119,41.829,13.342Zm-4.871,18.5c-2.532,6.865-7.7,11.579-15.8,14.412a.725.725,0,0,1-.092.025.648.648,0,0,1-.254,0,.718.718,0,0,1-.091-.024c-8.109-2.827-13.28-7.539-15.81-14.4-2.213-6-2.087-12.59-1.977-18.4v-.032c.023-.5.038-1.022.046-1.6A2.317,2.317,0,0,1,5.164,9.551a25.318,25.318,0,0,0,8.593-1.89,22.483,22.483,0,0,0,7-4.7.266.266,0,0,1,.357,0,22.491,22.491,0,0,0,7,4.7,25.319,25.319,0,0,0,8.594,1.89A2.316,2.316,0,0,1,38.9,11.819c.009.578.024,1.1.046,1.6C39.054,19.233,39.176,25.826,36.957,31.842Zm0,0" transform="translate(0 0.001)"/>
  <path id="Path_525" data-name="Path 525" class="cls-1" d="M102.654,128.41a12.256,12.256,0,1,0,12.256,12.256A12.27,12.27,0,0,0,102.654,128.41Zm0,21.626a9.37,9.37,0,1,1,9.37-9.37A9.381,9.381,0,0,1,102.654,150.036Zm0,0" transform="translate(-81.716 -116.076)"/>
  <path id="Path_526" data-name="Path 526" class="cls-1" d="M163.373,212.414l-5.692,5.692-1.545-1.545a1.443,1.443,0,0,0-2.041,2.04l2.566,2.566a1.443,1.443,0,0,0,2.04,0l6.713-6.713a1.443,1.443,0,0,0-2.041-2.04Zm0,0" transform="translate(-138.913 -191.629)"/>
</svg>
