<svg xmlns="http://www.w3.org/2000/svg" xmlns:xlink="http://www.w3.org/1999/xlink" width="634.016" height="329.788" viewBox="0 0 634.016 329.788">
  <defs>
    <linearGradient id="linear-gradient" y1="0.5" x2="1" y2="0.5" gradientUnits="objectBoundingBox">
      <stop offset="0" stop-color="#7379ba"/>
      <stop offset="1" stop-color="#bc79b3"/>
    </linearGradient>
    <linearGradient id="linear-gradient-4" x1="0.5" y1="1" x2="0.5" gradientUnits="objectBoundingBox">
      <stop offset="0" stop-color="#f1f2f2"/>
      <stop offset="0.261" stop-color="#f5f5f6"/>
      <stop offset="1" stop-color="#fff"/>
    </linearGradient>
    <radialGradient id="radial-gradient" cx="135.712" cy="307.24" r="35.904" gradientTransform="translate(0 -0.629) scale(1 1.009)" gradientUnits="userSpaceOnUse">
      <stop offset="0" stop-color="#5e4b8b"/>
      <stop offset="0.691" stop-color="#5e4b8b"/>
      <stop offset="0.73" stop-color="#5c4988"/>
      <stop offset="0.779" stop-color="#55447e"/>
      <stop offset="0.831" stop-color="#4a3c6e"/>
      <stop offset="0.887" stop-color="#3b2f58"/>
      <stop offset="0.944" stop-color="#271f3f"/>
      <stop offset="0.946" stop-color="#271f3e"/>
    </radialGradient>
  </defs>
  <g id="Workspace1-_Flat_Lay" data-name="Workspace1- Flat Lay" transform="translate(0)">
    <g id="Group_69" data-name="Group 69">
      <path id="Path_65" data-name="Path 65" d="M380.249,162.167a10.81,10.81,0,0,1-10.811,10.81H260.263a10.81,10.81,0,0,1-10.81-10.81l10.81-42.157H369.438Z" fill="#fff"/>
      <path id="Path_66" data-name="Path 66" d="M369.438,174.6H260.263a12.445,12.445,0,0,1-12.431-12.431l.051-.4L259,118.389H370.7l11.174,43.778A12.444,12.444,0,0,1,369.438,174.6ZM251.077,162.363a9.2,9.2,0,0,0,9.187,8.993H369.439a9.2,9.2,0,0,0,9.186-8.993l-10.443-40.731H261.521Z" fill="#cdd0e0"/>
      <g id="Group_68" data-name="Group 68">
        <path id="Path_67" data-name="Path 67" d="M371.6,134.783H258.1l-2.522,10.089H374.124Z" fill="#cdd0e0"/>
      </g>
      <path id="Path_68" data-name="Path 68" d="M629.784,8.614c-2.051-3.318-7.051-5.371-10.506-5.371H14.739c-3.455,0-8.455,2.053-10.505,5.371a6.637,6.637,0,0,0-.6,1.274c2.67-2.947,7.38-4.483,11.1-4.483H619.278c3.725,0,8.434,1.536,11.1,4.483A6.7,6.7,0,0,0,629.784,8.614Z" fill="#fff"/>
      <path id="Path_69" data-name="Path 69" d="M628.6,12.874c-1.635-2.646-6.021-4.227-9.318-4.227H14.739c-3.3,0-7.684,1.581-9.318,4.227a4.078,4.078,0,0,0-.041,4.237c.713,1.427,5.738,8.332,13.229,18.342C28.349,48.472,42.262,66.747,56.316,85.1c8.334,10.884,16.713,21.791,24.3,31.642H553.4c7.586-9.851,15.965-20.757,24.3-31.642,14.055-18.354,27.967-36.629,37.709-49.647,7.488-10.01,12.512-16.915,13.227-18.342A4.08,4.08,0,0,0,628.6,12.874ZM539.067,113.5H94.95L28.975,16.214H605.041Z" fill="#271f3e"/>
      <path id="Path_70" data-name="Path 70" d="M35.092,19.457l61.576,90.8h440.68l61.576-90.8Z" fill="url(#linear-gradient)"/>
      <path id="Path_71" data-name="Path 71" d="M83.571,119.984c3.291,4.276,8.562,11.12,8.879,11.53H541.567c.318-.411,5.588-7.254,8.879-11.53H83.571Z" fill="#fff"/>
      <path id="Path_72" data-name="Path 72" d="M632.542,6.909C629.768,2.422,623.639,0,619.278,0H14.739C10.379,0,4.249,2.422,1.475,6.909.124,9.1-.99,12.708,1.4,17.48c1.181,2.361,6.772,9.85,14.615,19.9C40.022,69.5,87.578,131.09,90.2,134.488l.485.63h452.64l.486-.63c2.623-3.4,50.18-64.992,74.189-97.108,7.844-10.05,13.434-17.539,14.615-19.9C635.006,12.708,633.893,9.1,632.542,6.909ZM84.818,119.984H550.446c-3.291,4.276-5.875,7.634-7.49,9.729-.6.78-1.07,1.391-1.389,1.8H92.45l-1.389-1.8c-1.614-2.1-4.2-5.453-7.49-9.729h1.247ZM553.4,116.742H80.613c-7.586-9.851-15.965-20.757-24.3-31.642C42.261,66.747,28.348,48.471,18.608,35.453,11.118,25.443,6.092,18.538,5.379,17.111a4.078,4.078,0,0,1,.041-4.237c1.635-2.646,6.021-4.227,9.318-4.227h604.54c3.3,0,7.684,1.581,9.318,4.227a4.078,4.078,0,0,1,.041,4.237c-.715,1.427-5.738,8.332-13.227,18.342C605.668,48.472,591.756,66.747,577.7,85.1,569.368,95.984,560.989,106.891,553.4,116.742ZM14.739,3.243h604.54c3.455,0,8.455,2.053,10.506,5.371a6.753,6.753,0,0,1,.6,1.273C627.713,6.94,623,5.4,619.28,5.4H14.739c-3.724,0-8.434,1.536-11.1,4.483a6.57,6.57,0,0,1,.6-1.273C6.284,5.3,11.284,3.243,14.739,3.243Z" fill="#cdd0e0"/>
      <path id="Path_73" data-name="Path 73" d="M316.717,16.214H28.975L94.95,113.5H539.068l65.975-97.285H316.717Zm.582,94.042H96.668l-61.576-90.8H598.924l-61.576,90.8H317.3Z" fill="#cdd0e0"/>
      <rect id="Rectangle_38" data-name="Rectangle 38" width="10.81" height="4.324" transform="translate(309.664 123.223)" fill="#cdd0e0"/>
    </g>
    <g id="Group_153" data-name="Group 153">
      <path id="Path_74" data-name="Path 74" d="M426.386,307.206a6.808,6.808,0,0,1-6.809,6.808h-206a6.807,6.807,0,0,1-6.808-6.808V221.379a6.807,6.807,0,0,1,6.808-6.808h206a6.808,6.808,0,0,1,6.809,6.808v85.827Z" fill="#fff"/>
      <path id="Path_75" data-name="Path 75" d="M420.006,212.646h-206a8.338,8.338,0,0,0-8.329,8.328V306.8a8.338,8.338,0,0,0,8.329,8.328h206a8.338,8.338,0,0,0,8.33-8.328V220.974A8.339,8.339,0,0,0,420.006,212.646Zm0,99.443h-206a5.292,5.292,0,0,1-5.287-5.286V220.975a5.293,5.293,0,0,1,5.287-5.287h206a5.293,5.293,0,0,1,5.287,5.287V306.8A5.292,5.292,0,0,1,420.006,312.089Z" fill="#cdd0e0"/>
      <g id="Group_70" data-name="Group 70">
        <path id="Path_76" data-name="Path 76" d="M223.92,236.148a.938.938,0,0,1-.856,1h-8.556a.938.938,0,0,1-.856-1v-3.256a.938.938,0,0,1,.856-1h8.556a.938.938,0,0,1,.856,1Z" fill="#68ccf4"/>
        <path id="Path_77" data-name="Path 77" d="M223.064,237.49h-8.556a1.277,1.277,0,0,1-1.2-1.342v-3.256a1.277,1.277,0,0,1,1.2-1.342h8.556a1.277,1.277,0,0,1,1.2,1.342v3.256A1.277,1.277,0,0,1,223.064,237.49Zm-8.556-5.259a.6.6,0,0,0-.516.661v3.256a.6.6,0,0,0,.516.662h8.556a.6.6,0,0,0,.516-.662v-3.256a.6.6,0,0,0-.516-.661Z" fill="#68ccf4"/>
      </g>
      <g id="Group_71" data-name="Group 71">
        <path id="Path_78" data-name="Path 78" d="M238.946,236.148a.938.938,0,0,1-.855,1h-8.557a.937.937,0,0,1-.855-1v-3.256a.938.938,0,0,1,.855-1h8.557a.938.938,0,0,1,.855,1Z" fill="#68ccf4"/>
        <path id="Path_79" data-name="Path 79" d="M238.091,237.49h-8.557a1.277,1.277,0,0,1-1.2-1.342v-3.256a1.277,1.277,0,0,1,1.2-1.342h8.557a1.276,1.276,0,0,1,1.2,1.342v3.256A1.276,1.276,0,0,1,238.091,237.49Zm-8.557-5.259a.611.611,0,0,0-.515.661v3.256a.612.612,0,0,0,.515.662h8.557a.6.6,0,0,0,.515-.662v-3.256a.6.6,0,0,0-.515-.661Z" fill="#68ccf4"/>
      </g>
      <g id="Group_72" data-name="Group 72">
        <path id="Path_80" data-name="Path 80" d="M253.973,236.148a.938.938,0,0,1-.856,1h-8.556a.938.938,0,0,1-.856-1v-3.256a.938.938,0,0,1,.856-1h8.556a.938.938,0,0,1,.856,1Z" fill="#68ccf4"/>
        <path id="Path_81" data-name="Path 81" d="M253.117,237.49h-8.556a1.278,1.278,0,0,1-1.2-1.342v-3.256a1.278,1.278,0,0,1,1.2-1.342h8.556a1.276,1.276,0,0,1,1.2,1.342v3.256A1.276,1.276,0,0,1,253.117,237.49Zm-8.556-5.259a.6.6,0,0,0-.516.661v3.256a.6.6,0,0,0,.516.662h8.556a.6.6,0,0,0,.516-.662v-3.256a.6.6,0,0,0-.516-.661Z" fill="#68ccf4"/>
      </g>
      <g id="Group_73" data-name="Group 73">
        <path id="Path_82" data-name="Path 82" d="M391.036,306.408a.809.809,0,0,1-.855.752h-8.557a.808.808,0,0,1-.855-.752v-2.441a.809.809,0,0,1,.855-.751h8.557a.808.808,0,0,1,.855.751Z" fill="#cdd0e0"/>
        <path id="Path_83" data-name="Path 83" d="M390.18,307.5h-8.557a1.148,1.148,0,0,1-1.2-1.092v-2.441a1.147,1.147,0,0,1,1.2-1.091h8.557a1.148,1.148,0,0,1,1.2,1.091v2.441A1.149,1.149,0,0,1,390.18,307.5Zm-8.556-3.943a.474.474,0,0,0-.516.41v2.441a.473.473,0,0,0,.516.411h8.557a.475.475,0,0,0,.516-.411v-2.441a.472.472,0,0,0-.516-.41Z" fill="#cdd0e0"/>
      </g>
      <g id="Group_74" data-name="Group 74">
        <path id="Path_84" data-name="Path 84" d="M406.063,306.408a.81.81,0,0,1-.855.752h-8.557a.808.808,0,0,1-.855-.752v-2.441a.809.809,0,0,1,.855-.751h8.557a.809.809,0,0,1,.855.751Z" fill="#cdd0e0"/>
        <path id="Path_85" data-name="Path 85" d="M405.208,307.5h-8.557a1.15,1.15,0,0,1-1.2-1.092v-2.441a1.149,1.149,0,0,1,1.2-1.091h8.557a1.148,1.148,0,0,1,1.2,1.091v2.441A1.149,1.149,0,0,1,405.208,307.5Zm-8.557-3.943a.479.479,0,0,0-.516.41v2.441a.479.479,0,0,0,.516.411h8.557a.473.473,0,0,0,.514-.411v-2.441a.47.47,0,0,0-.514-.41Z" fill="#cdd0e0"/>
      </g>
      <g id="Group_75" data-name="Group 75">
        <path id="Path_86" data-name="Path 86" d="M406.063,302.324a.81.81,0,0,1-.855.751h-8.557a.808.808,0,0,1-.855-.751v-2.441a.809.809,0,0,1,.855-.752h8.557a.809.809,0,0,1,.855.752Z" fill="#cdd0e0"/>
        <path id="Path_87" data-name="Path 87" d="M405.208,303.416h-8.557a1.15,1.15,0,0,1-1.2-1.092v-2.441a1.15,1.15,0,0,1,1.2-1.092h8.557a1.149,1.149,0,0,1,1.2,1.092v2.441A1.149,1.149,0,0,1,405.208,303.416Zm-8.557-3.943a.479.479,0,0,0-.516.41v2.441a.478.478,0,0,0,.516.41h8.557a.472.472,0,0,0,.514-.41v-2.441a.47.47,0,0,0-.514-.41Z" fill="#cdd0e0"/>
      </g>
      <g id="Group_76" data-name="Group 76">
        <path id="Path_88" data-name="Path 88" d="M421.088,306.408a.809.809,0,0,1-.855.752h-8.557a.809.809,0,0,1-.855-.752v-2.441a.81.81,0,0,1,.855-.751h8.557a.808.808,0,0,1,.855.751Z" fill="#cdd0e0"/>
        <path id="Path_89" data-name="Path 89" d="M420.233,307.5h-8.557a1.149,1.149,0,0,1-1.2-1.092v-2.441a1.148,1.148,0,0,1,1.2-1.091h8.557a1.149,1.149,0,0,1,1.2,1.091v2.441A1.15,1.15,0,0,1,420.233,307.5Zm-8.557-3.943a.472.472,0,0,0-.514.41v2.441a.471.471,0,0,0,.514.411h8.557a.473.473,0,0,0,.516-.411v-2.441a.471.471,0,0,0-.516-.41Z" fill="#cdd0e0"/>
      </g>
      <g id="Group_77" data-name="Group 77">
        <path id="Path_90" data-name="Path 90" d="M269,236.148a.937.937,0,0,1-.855,1h-8.556a.938.938,0,0,1-.856-1v-3.256a.938.938,0,0,1,.856-1h8.556a.937.937,0,0,1,.855,1Z" fill="#cdd0e0"/>
        <path id="Path_91" data-name="Path 91" d="M268.143,237.49h-8.556a1.276,1.276,0,0,1-1.2-1.342v-3.256a1.277,1.277,0,0,1,1.2-1.342h8.556a1.276,1.276,0,0,1,1.2,1.342v3.256A1.276,1.276,0,0,1,268.143,237.49Zm-8.556-5.259a.6.6,0,0,0-.516.661v3.256a.6.6,0,0,0,.516.662h8.556a.6.6,0,0,0,.516-.662v-3.256a.6.6,0,0,0-.516-.661Z" fill="#cdd0e0"/>
      </g>
      <g id="Group_78" data-name="Group 78">
        <path id="Path_92" data-name="Path 92" d="M284.026,236.148a.939.939,0,0,1-.857,1h-8.555a.938.938,0,0,1-.856-1v-3.256a.938.938,0,0,1,.856-1h8.555a.939.939,0,0,1,.857,1Z" fill="#cdd0e0"/>
        <path id="Path_93" data-name="Path 93" d="M283.169,237.49h-8.555a1.276,1.276,0,0,1-1.2-1.342v-3.256a1.276,1.276,0,0,1,1.2-1.342h8.555a1.277,1.277,0,0,1,1.2,1.342v3.256A1.277,1.277,0,0,1,283.169,237.49Zm-8.555-5.259a.611.611,0,0,0-.516.661v3.256a.611.611,0,0,0,.516.662h8.555a.6.6,0,0,0,.517-.662v-3.256a.6.6,0,0,0-.517-.661Z" fill="#cdd0e0"/>
      </g>
      <g id="Group_79" data-name="Group 79">
        <path id="Path_94" data-name="Path 94" d="M299.052,236.148a.938.938,0,0,1-.856,1H289.64a.938.938,0,0,1-.855-1v-3.256a.938.938,0,0,1,.855-1H298.2a.938.938,0,0,1,.856,1Z" fill="#cdd0e0"/>
        <path id="Path_95" data-name="Path 95" d="M298.2,237.49H289.64a1.277,1.277,0,0,1-1.2-1.342v-3.256a1.277,1.277,0,0,1,1.2-1.342H298.2a1.276,1.276,0,0,1,1.2,1.342v3.256A1.276,1.276,0,0,1,298.2,237.49Zm-8.556-5.259a.611.611,0,0,0-.515.661v3.256a.612.612,0,0,0,.515.662H298.2a.6.6,0,0,0,.516-.662v-3.256a.6.6,0,0,0-.516-.661Z" fill="#cdd0e0"/>
      </g>
      <g id="Group_80" data-name="Group 80">
        <path id="Path_96" data-name="Path 96" d="M314.079,236.148a.938.938,0,0,1-.856,1h-8.556a.938.938,0,0,1-.856-1v-3.256a.938.938,0,0,1,.856-1h8.556a.938.938,0,0,1,.856,1Z" fill="#cdd0e0"/>
        <path id="Path_97" data-name="Path 97" d="M313.223,237.49h-8.556a1.276,1.276,0,0,1-1.2-1.342v-3.256a1.277,1.277,0,0,1,1.2-1.342h8.556a1.276,1.276,0,0,1,1.2,1.342v3.256A1.276,1.276,0,0,1,313.223,237.49Zm-8.556-5.259a.6.6,0,0,0-.516.661v3.256a.6.6,0,0,0,.516.662h8.556a.611.611,0,0,0,.516-.662v-3.256a.611.611,0,0,0-.516-.661Z" fill="#cdd0e0"/>
      </g>
      <g id="Group_81" data-name="Group 81">
        <path id="Path_98" data-name="Path 98" d="M329.106,236.148a.938.938,0,0,1-.855,1h-8.557a.937.937,0,0,1-.855-1v-3.256a.938.938,0,0,1,.855-1h8.557a.937.937,0,0,1,.855,1Z" fill="#cdd0e0"/>
        <path id="Path_99" data-name="Path 99" d="M328.25,237.49h-8.557a1.277,1.277,0,0,1-1.2-1.342v-3.256a1.277,1.277,0,0,1,1.2-1.342h8.557a1.277,1.277,0,0,1,1.2,1.342v3.256A1.275,1.275,0,0,1,328.25,237.49Zm-8.556-5.259a.612.612,0,0,0-.518.661v3.256a.611.611,0,0,0,.518.662h8.557a.6.6,0,0,0,.514-.662v-3.256a.6.6,0,0,0-.514-.661Z" fill="#cdd0e0"/>
      </g>
      <g id="Group_82" data-name="Group 82">
        <path id="Path_100" data-name="Path 100" d="M344.131,236.148a.938.938,0,0,1-.855,1h-8.555a.939.939,0,0,1-.857-1v-3.256a.939.939,0,0,1,.857-1h8.555a.937.937,0,0,1,.855,1Z" fill="#cdd0e0"/>
        <path id="Path_101" data-name="Path 101" d="M343.276,237.49h-8.555a1.277,1.277,0,0,1-1.2-1.342v-3.256a1.277,1.277,0,0,1,1.2-1.342h8.555a1.277,1.277,0,0,1,1.2,1.342v3.256A1.277,1.277,0,0,1,343.276,237.49Zm-8.555-5.259a.612.612,0,0,0-.518.661v3.256a.611.611,0,0,0,.518.662h8.555a.612.612,0,0,0,.516-.662v-3.256a.611.611,0,0,0-.516-.661Z" fill="#cdd0e0"/>
      </g>
      <g id="Group_83" data-name="Group 83">
        <path id="Path_102" data-name="Path 102" d="M359.159,236.148a.939.939,0,0,1-.857,1h-8.555a.937.937,0,0,1-.855-1v-3.256a.938.938,0,0,1,.855-1H358.3a.939.939,0,0,1,.857,1Z" fill="#cdd0e0"/>
        <path id="Path_103" data-name="Path 103" d="M358.3,237.49h-8.555a1.277,1.277,0,0,1-1.2-1.342v-3.256a1.277,1.277,0,0,1,1.2-1.342H358.3a1.277,1.277,0,0,1,1.2,1.342v3.256A1.276,1.276,0,0,1,358.3,237.49Zm-8.554-5.259a.6.6,0,0,0-.516.661v3.256a.6.6,0,0,0,.516.662H358.3a.611.611,0,0,0,.516-.662v-3.256a.61.61,0,0,0-.516-.661Z" fill="#cdd0e0"/>
      </g>
      <g id="Group_84" data-name="Group 84">
        <path id="Path_104" data-name="Path 104" d="M374.184,236.148a.938.938,0,0,1-.855,1h-8.557a.937.937,0,0,1-.855-1v-3.256a.938.938,0,0,1,.855-1h8.557a.937.937,0,0,1,.855,1Z" fill="#cdd0e0"/>
        <path id="Path_105" data-name="Path 105" d="M373.329,237.49h-8.557a1.276,1.276,0,0,1-1.2-1.342v-3.256a1.276,1.276,0,0,1,1.2-1.342h8.557a1.277,1.277,0,0,1,1.2,1.342v3.256A1.277,1.277,0,0,1,373.329,237.49Zm-8.557-5.259a.6.6,0,0,0-.516.661v3.256a.6.6,0,0,0,.516.662h8.557a.612.612,0,0,0,.516-.662v-3.256a.611.611,0,0,0-.516-.661Z" fill="#cdd0e0"/>
      </g>
      <g id="Group_85" data-name="Group 85">
        <path id="Path_106" data-name="Path 106" d="M389.211,236.148a.938.938,0,0,1-.857,1H379.8a.937.937,0,0,1-.855-1v-3.256a.938.938,0,0,1,.855-1h8.555a.937.937,0,0,1,.857,1Z" fill="#cdd0e0"/>
        <path id="Path_107" data-name="Path 107" d="M388.354,237.49H379.8a1.277,1.277,0,0,1-1.2-1.342v-3.256a1.277,1.277,0,0,1,1.2-1.342h8.555a1.277,1.277,0,0,1,1.2,1.342v3.256A1.277,1.277,0,0,1,388.354,237.49Zm-8.555-5.259a.612.612,0,0,0-.516.661v3.256a.611.611,0,0,0,.516.662h8.555a.6.6,0,0,0,.516-.662v-3.256a.6.6,0,0,0-.516-.661Z" fill="#cdd0e0"/>
      </g>
      <g id="Group_86" data-name="Group 86">
        <path id="Path_108" data-name="Path 108" d="M404.237,236.148a.938.938,0,0,1-.855,1h-8.557a.938.938,0,0,1-.855-1v-3.256a.939.939,0,0,1,.855-1h8.557a.937.937,0,0,1,.855,1Z" fill="#cdd0e0"/>
        <path id="Path_109" data-name="Path 109" d="M403.381,237.49h-8.557a1.276,1.276,0,0,1-1.2-1.342v-3.256a1.276,1.276,0,0,1,1.2-1.342h8.557a1.277,1.277,0,0,1,1.2,1.342v3.256A1.275,1.275,0,0,1,403.381,237.49Zm-8.556-5.259a.612.612,0,0,0-.516.661v3.256a.611.611,0,0,0,.516.662h8.557a.612.612,0,0,0,.516-.662v-3.256a.611.611,0,0,0-.516-.661Z" fill="#cdd0e0"/>
      </g>
      <g id="Group_87" data-name="Group 87">
        <path id="Path_110" data-name="Path 110" d="M419.264,236.148a.939.939,0,0,1-.857,1h-8.555a.939.939,0,0,1-.857-1v-3.256a.939.939,0,0,1,.857-1h8.555a.939.939,0,0,1,.857,1Z" fill="#cdd0e0"/>
        <path id="Path_111" data-name="Path 111" d="M418.407,237.49h-8.555a1.276,1.276,0,0,1-1.2-1.342v-3.256a1.276,1.276,0,0,1,1.2-1.342h8.555a1.277,1.277,0,0,1,1.2,1.342v3.256A1.277,1.277,0,0,1,418.407,237.49Zm-8.555-5.259a.612.612,0,0,0-.516.661v3.256a.611.611,0,0,0,.516.662h8.555a.612.612,0,0,0,.518-.662v-3.256a.611.611,0,0,0-.518-.661Z" fill="#cdd0e0"/>
      </g>
      <g id="Group_103" data-name="Group 103">
        <g id="Group_95" data-name="Group 95">
          <g id="Group_88" data-name="Group 88">
            <path id="Path_112" data-name="Path 112" d="M223.723,251.253a1.194,1.194,0,0,1-1.2,1.2H215.06a1.2,1.2,0,0,1-1.2-1.2v-7.468a1.2,1.2,0,0,1,1.2-1.2h7.468a1.2,1.2,0,0,1,1.2,1.2Z" fill="#cdd0e0"/>
            <path id="Path_113" data-name="Path 113" d="M222.528,252.789H215.06a1.537,1.537,0,0,1-1.535-1.536v-7.468a1.537,1.537,0,0,1,1.535-1.535h7.468a1.537,1.537,0,0,1,1.535,1.535v7.468A1.537,1.537,0,0,1,222.528,252.789Zm-7.467-9.858a.855.855,0,0,0-.854.854v7.468a.855.855,0,0,0,.854.855h7.468a.856.856,0,0,0,.855-.855v-7.468a.855.855,0,0,0-.855-.854Z" fill="#cdd0e0"/>
          </g>
          <g id="Group_89" data-name="Group 89">
            <path id="Path_114" data-name="Path 114" d="M238.431,251.253a1.2,1.2,0,0,1-1.2,1.2h-7.467a1.2,1.2,0,0,1-1.2-1.2v-7.468a1.2,1.2,0,0,1,1.2-1.2h7.467a1.2,1.2,0,0,1,1.2,1.2Z" fill="#cdd0e0"/>
            <path id="Path_115" data-name="Path 115" d="M237.235,252.789h-7.467a1.538,1.538,0,0,1-1.536-1.536v-7.468a1.537,1.537,0,0,1,1.536-1.535h7.467a1.537,1.537,0,0,1,1.536,1.535v7.468A1.538,1.538,0,0,1,237.235,252.789Zm-7.467-9.858a.856.856,0,0,0-.855.854v7.468a.855.855,0,0,0,.855.855h7.467a.857.857,0,0,0,.855-.855v-7.468a.856.856,0,0,0-.855-.854Z" fill="#cdd0e0"/>
          </g>
          <g id="Group_90" data-name="Group 90">
            <path id="Path_116" data-name="Path 116" d="M253.138,251.253a1.2,1.2,0,0,1-1.2,1.2h-7.467a1.2,1.2,0,0,1-1.2-1.2v-7.468a1.2,1.2,0,0,1,1.2-1.2h7.467a1.2,1.2,0,0,1,1.2,1.2Z" fill="#cdd0e0"/>
            <path id="Path_117" data-name="Path 117" d="M251.943,252.789h-7.467a1.538,1.538,0,0,1-1.536-1.536v-7.468a1.537,1.537,0,0,1,1.536-1.535h7.467a1.537,1.537,0,0,1,1.536,1.535v7.468A1.538,1.538,0,0,1,251.943,252.789Zm-7.467-9.858a.856.856,0,0,0-.855.854v7.468a.856.856,0,0,0,.855.855h7.467a.856.856,0,0,0,.854-.855v-7.468a.855.855,0,0,0-.854-.854Z" fill="#cdd0e0"/>
          </g>
          <g id="Group_91" data-name="Group 91">
            <path id="Path_118" data-name="Path 118" d="M267.845,251.253a1.2,1.2,0,0,1-1.194,1.2h-7.468a1.2,1.2,0,0,1-1.2-1.2v-7.468a1.2,1.2,0,0,1,1.2-1.2h7.468a1.2,1.2,0,0,1,1.194,1.2Z" fill="#cdd0e0"/>
            <path id="Path_119" data-name="Path 119" d="M266.65,252.789h-7.468a1.538,1.538,0,0,1-1.536-1.536v-7.468a1.537,1.537,0,0,1,1.536-1.535h7.468a1.537,1.537,0,0,1,1.535,1.535v7.468A1.537,1.537,0,0,1,266.65,252.789Zm-7.468-9.858a.855.855,0,0,0-.854.854v7.468a.855.855,0,0,0,.854.855h7.468a.855.855,0,0,0,.854-.855v-7.468a.854.854,0,0,0-.854-.854Z" fill="#cdd0e0"/>
          </g>
          <g id="Group_92" data-name="Group 92">
            <path id="Path_120" data-name="Path 120" d="M282.552,251.253a1.2,1.2,0,0,1-1.2,1.2h-7.468a1.194,1.194,0,0,1-1.194-1.2v-7.468a1.2,1.2,0,0,1,1.194-1.2h7.468a1.2,1.2,0,0,1,1.2,1.2Z" fill="#cdd0e0"/>
            <path id="Path_121" data-name="Path 121" d="M281.357,252.789h-7.468a1.537,1.537,0,0,1-1.535-1.536v-7.468a1.537,1.537,0,0,1,1.535-1.535h7.468a1.537,1.537,0,0,1,1.535,1.535v7.468A1.537,1.537,0,0,1,281.357,252.789Zm-7.468-9.858a.855.855,0,0,0-.854.854v7.468a.855.855,0,0,0,.854.855h7.468a.856.856,0,0,0,.854-.855v-7.468a.855.855,0,0,0-.854-.854Z" fill="#cdd0e0"/>
          </g>
          <g id="Group_93" data-name="Group 93">
            <path id="Path_122" data-name="Path 122" d="M297.26,251.253a1.2,1.2,0,0,1-1.2,1.2H288.6a1.2,1.2,0,0,1-1.2-1.2v-7.468a1.2,1.2,0,0,1,1.2-1.2h7.468a1.2,1.2,0,0,1,1.2,1.2Z" fill="#cdd0e0"/>
            <path id="Path_123" data-name="Path 123" d="M296.064,252.789H288.6a1.537,1.537,0,0,1-1.535-1.536v-7.468a1.537,1.537,0,0,1,1.535-1.535h7.468a1.537,1.537,0,0,1,1.536,1.535v7.468A1.538,1.538,0,0,1,296.064,252.789Zm-7.468-9.858a.855.855,0,0,0-.854.854v7.468a.855.855,0,0,0,.854.855h7.468a.856.856,0,0,0,.855-.855v-7.468a.855.855,0,0,0-.855-.854Z" fill="#cdd0e0"/>
          </g>
          <g id="Group_94" data-name="Group 94">
            <path id="Path_124" data-name="Path 124" d="M311.966,251.253a1.2,1.2,0,0,1-1.2,1.2H303.3a1.2,1.2,0,0,1-1.2-1.2v-7.468a1.2,1.2,0,0,1,1.2-1.2h7.467a1.2,1.2,0,0,1,1.2,1.2Z" fill="#cdd0e0"/>
            <path id="Path_125" data-name="Path 125" d="M310.771,252.789H303.3a1.538,1.538,0,0,1-1.536-1.536v-7.468a1.537,1.537,0,0,1,1.536-1.535h7.467a1.537,1.537,0,0,1,1.536,1.535v7.468A1.538,1.538,0,0,1,310.771,252.789Zm-7.467-9.858a.856.856,0,0,0-.855.854v7.468a.855.855,0,0,0,.855.855h7.467a.857.857,0,0,0,.855-.855v-7.468a.856.856,0,0,0-.855-.854Z" fill="#cdd0e0"/>
          </g>
        </g>
        <g id="Group_96" data-name="Group 96">
          <path id="Path_126" data-name="Path 126" d="M326.674,251.253a1.2,1.2,0,0,1-1.2,1.2h-7.467a1.2,1.2,0,0,1-1.2-1.2v-7.468a1.2,1.2,0,0,1,1.2-1.2h7.467a1.2,1.2,0,0,1,1.2,1.2Z" fill="#cdd0e0"/>
          <path id="Path_127" data-name="Path 127" d="M325.479,252.789h-7.467a1.537,1.537,0,0,1-1.536-1.536v-7.468a1.537,1.537,0,0,1,1.536-1.535h7.467a1.536,1.536,0,0,1,1.535,1.535v7.468A1.536,1.536,0,0,1,325.479,252.789Zm-7.467-9.858a.857.857,0,0,0-.856.854v7.468a.857.857,0,0,0,.856.855h7.467a.855.855,0,0,0,.855-.855v-7.468a.855.855,0,0,0-.855-.854Z" fill="#cdd0e0"/>
        </g>
        <g id="Group_97" data-name="Group 97">
          <path id="Path_128" data-name="Path 128" d="M341.379,251.253a1.193,1.193,0,0,1-1.193,1.2h-7.469a1.193,1.193,0,0,1-1.193-1.2v-7.468a1.194,1.194,0,0,1,1.193-1.2h7.469a1.194,1.194,0,0,1,1.193,1.2Z" fill="#cdd0e0"/>
          <path id="Path_129" data-name="Path 129" d="M340.186,252.789h-7.469a1.536,1.536,0,0,1-1.533-1.536v-7.468a1.536,1.536,0,0,1,1.533-1.535h7.469a1.536,1.536,0,0,1,1.535,1.535v7.468A1.536,1.536,0,0,1,340.186,252.789Zm-7.469-9.858a.855.855,0,0,0-.854.854v7.468a.855.855,0,0,0,.854.855h7.469a.857.857,0,0,0,.855-.855v-7.468a.856.856,0,0,0-.855-.854Z" fill="#cdd0e0"/>
        </g>
        <g id="Group_98" data-name="Group 98">
          <path id="Path_130" data-name="Path 130" d="M356.088,251.253a1.2,1.2,0,0,1-1.2,1.2h-7.469a1.193,1.193,0,0,1-1.193-1.2v-7.468a1.194,1.194,0,0,1,1.193-1.2h7.469a1.2,1.2,0,0,1,1.2,1.2Z" fill="#cdd0e0"/>
          <path id="Path_131" data-name="Path 131" d="M354.893,252.789h-7.469a1.536,1.536,0,0,1-1.533-1.536v-7.468a1.536,1.536,0,0,1,1.533-1.535h7.469a1.536,1.536,0,0,1,1.535,1.535v7.468A1.536,1.536,0,0,1,354.893,252.789Zm-7.469-9.858a.854.854,0,0,0-.852.854v7.468a.853.853,0,0,0,.852.855h7.469a.855.855,0,0,0,.855-.855v-7.468a.855.855,0,0,0-.855-.854Z" fill="#cdd0e0"/>
        </g>
        <g id="Group_99" data-name="Group 99">
          <path id="Path_132" data-name="Path 132" d="M370.8,251.253a1.2,1.2,0,0,1-1.2,1.2h-7.469a1.2,1.2,0,0,1-1.193-1.2v-7.468a1.2,1.2,0,0,1,1.193-1.2H369.6a1.2,1.2,0,0,1,1.2,1.2Z" fill="#cdd0e0"/>
          <path id="Path_133" data-name="Path 133" d="M369.6,252.789h-7.469a1.536,1.536,0,0,1-1.533-1.536v-7.468a1.536,1.536,0,0,1,1.533-1.535H369.6a1.536,1.536,0,0,1,1.535,1.535v7.468A1.536,1.536,0,0,1,369.6,252.789Zm-7.469-9.858a.855.855,0,0,0-.854.854v7.468a.855.855,0,0,0,.854.855H369.6a.855.855,0,0,0,.855-.855v-7.468a.855.855,0,0,0-.855-.854Z" fill="#cdd0e0"/>
        </g>
        <g id="Group_100" data-name="Group 100">
          <path id="Path_134" data-name="Path 134" d="M385.5,251.253a1.2,1.2,0,0,1-1.2,1.2H376.84a1.2,1.2,0,0,1-1.2-1.2v-7.468a1.2,1.2,0,0,1,1.2-1.2h7.467a1.2,1.2,0,0,1,1.2,1.2Z" fill="#cdd0e0"/>
          <path id="Path_135" data-name="Path 135" d="M384.307,252.789H376.84a1.536,1.536,0,0,1-1.535-1.536v-7.468a1.537,1.537,0,0,1,1.535-1.535h7.467a1.538,1.538,0,0,1,1.537,1.535v7.468A1.538,1.538,0,0,1,384.307,252.789Zm-7.467-9.858a.855.855,0,0,0-.855.854v7.468a.855.855,0,0,0,.855.855h7.467a.857.857,0,0,0,.855-.855v-7.468a.856.856,0,0,0-.855-.854Z" fill="#cdd0e0"/>
        </g>
        <g id="Group_101" data-name="Group 101">
          <path id="Path_136" data-name="Path 136" d="M400.209,251.253a1.2,1.2,0,0,1-1.2,1.2h-7.467a1.2,1.2,0,0,1-1.2-1.2v-7.468a1.2,1.2,0,0,1,1.2-1.2h7.467a1.2,1.2,0,0,1,1.2,1.2Z" fill="#cdd0e0"/>
          <path id="Path_137" data-name="Path 137" d="M399.014,252.789h-7.467a1.536,1.536,0,0,1-1.535-1.536v-7.468a1.537,1.537,0,0,1,1.535-1.535h7.467a1.536,1.536,0,0,1,1.535,1.535v7.468A1.536,1.536,0,0,1,399.014,252.789Zm-7.467-9.858a.856.856,0,0,0-.855.854v7.468a.857.857,0,0,0,.855.855h7.467a.855.855,0,0,0,.855-.855v-7.468a.855.855,0,0,0-.855-.854Z" fill="#cdd0e0"/>
        </g>
        <g id="Group_102" data-name="Group 102">
          <path id="Path_138" data-name="Path 138" d="M420.2,251.253c0,.66-.77,1.2-1.719,1.2H407.747c-.949,0-1.719-.535-1.719-1.2v-7.468c0-.659.77-1.2,1.719-1.2h10.732c.949,0,1.719.536,1.719,1.2Z" fill="#cdd0e0"/>
          <path id="Path_139" data-name="Path 139" d="M418.479,252.789H407.747c-1.154,0-2.059-.676-2.059-1.536v-7.468c0-.861.9-1.535,2.059-1.535h10.732c1.156,0,2.059.674,2.059,1.535v7.468C420.538,252.113,419.635,252.789,418.479,252.789Zm-10.732-9.858c-.748,0-1.379.392-1.379.854v7.468c0,.464.631.855,1.379.855h10.732c.748,0,1.379-.392,1.379-.855v-7.468c0-.463-.631-.854-1.379-.854Z" fill="#cdd0e0"/>
        </g>
      </g>
      <g id="Group_117" data-name="Group 117">
        <g id="Group_104" data-name="Group 104">
          <path id="Path_140" data-name="Path 140" d="M395.633,264.869a1.2,1.2,0,0,0,1.193,1.2h7.469a1.2,1.2,0,0,0,1.2-1.2V257.4a1.194,1.194,0,0,0-1.2-1.194h-7.469a1.194,1.194,0,0,0-1.193,1.194Z" fill="#8b78b7"/>
          <path id="Path_141" data-name="Path 141" d="M404.3,266.4h-7.469a1.537,1.537,0,0,1-1.535-1.535V257.4a1.537,1.537,0,0,1,1.535-1.535H404.3a1.536,1.536,0,0,1,1.535,1.535v7.469A1.535,1.535,0,0,1,404.3,266.4Zm-7.468-9.858a.855.855,0,0,0-.854.854v7.469a.855.855,0,0,0,.854.854H404.3a.856.856,0,0,0,.855-.854V257.4a.856.856,0,0,0-.855-.854Z" fill="#8b78b7"/>
        </g>
        <g id="Group_105" data-name="Group 105">
          <path id="Path_142" data-name="Path 142" d="M380.926,264.869a1.2,1.2,0,0,0,1.2,1.2h7.467a1.2,1.2,0,0,0,1.2-1.2V257.4a1.194,1.194,0,0,0-1.2-1.194h-7.467a1.194,1.194,0,0,0-1.2,1.194Z" fill="#8b78b7"/>
          <path id="Path_143" data-name="Path 143" d="M389.588,266.4h-7.467a1.535,1.535,0,0,1-1.535-1.535V257.4a1.537,1.537,0,0,1,1.535-1.535h7.467a1.537,1.537,0,0,1,1.535,1.535v7.469A1.536,1.536,0,0,1,389.588,266.4Zm-7.466-9.858a.855.855,0,0,0-.855.854v7.469a.855.855,0,0,0,.855.854h7.467a.855.855,0,0,0,.854-.854V257.4a.855.855,0,0,0-.854-.854Z" fill="#8b78b7"/>
        </g>
        <g id="Group_106" data-name="Group 106">
          <path id="Path_144" data-name="Path 144" d="M366.219,264.869a1.194,1.194,0,0,0,1.2,1.2h7.467a1.2,1.2,0,0,0,1.2-1.2V257.4a1.194,1.194,0,0,0-1.2-1.194h-7.467a1.193,1.193,0,0,0-1.2,1.194Z" fill="#8b78b7"/>
          <path id="Path_145" data-name="Path 145" d="M374.881,266.4h-7.467a1.537,1.537,0,0,1-1.537-1.535V257.4a1.538,1.538,0,0,1,1.537-1.535h7.467a1.537,1.537,0,0,1,1.535,1.535v7.469A1.536,1.536,0,0,1,374.881,266.4Zm-7.466-9.858a.855.855,0,0,0-.855.854v7.469a.855.855,0,0,0,.855.854h7.467a.855.855,0,0,0,.854-.854V257.4a.855.855,0,0,0-.854-.854Z" fill="#8b78b7"/>
        </g>
        <g id="Group_107" data-name="Group 107">
          <path id="Path_146" data-name="Path 146" d="M351.512,264.869a1.2,1.2,0,0,0,1.193,1.2h7.469a1.2,1.2,0,0,0,1.2-1.2V257.4a1.194,1.194,0,0,0-1.2-1.194H352.7a1.194,1.194,0,0,0-1.193,1.194Z" fill="#8b78b7"/>
          <path id="Path_147" data-name="Path 147" d="M360.174,266.4h-7.469a1.537,1.537,0,0,1-1.535-1.535V257.4a1.537,1.537,0,0,1,1.535-1.535h7.469a1.537,1.537,0,0,1,1.535,1.535v7.469A1.537,1.537,0,0,1,360.174,266.4Zm-7.468-9.858a.855.855,0,0,0-.854.854v7.469a.855.855,0,0,0,.854.854h7.469a.854.854,0,0,0,.854-.854V257.4a.854.854,0,0,0-.854-.854Z" fill="#8b78b7"/>
        </g>
        <g id="Group_108" data-name="Group 108">
          <path id="Path_148" data-name="Path 148" d="M336.8,264.869a1.2,1.2,0,0,0,1.2,1.2h7.467a1.2,1.2,0,0,0,1.2-1.2V257.4a1.194,1.194,0,0,0-1.2-1.194H338a1.194,1.194,0,0,0-1.2,1.194Z" fill="#8b78b7"/>
          <path id="Path_149" data-name="Path 149" d="M345.467,266.4H338a1.537,1.537,0,0,1-1.537-1.535V257.4A1.538,1.538,0,0,1,338,255.865h7.467A1.537,1.537,0,0,1,347,257.4v7.469A1.537,1.537,0,0,1,345.467,266.4ZM338,256.546a.855.855,0,0,0-.855.854v7.469a.855.855,0,0,0,.855.854h7.467a.855.855,0,0,0,.854-.854V257.4a.855.855,0,0,0-.854-.854Z" fill="#8b78b7"/>
        </g>
        <g id="Group_109" data-name="Group 109">
          <path id="Path_150" data-name="Path 150" d="M322.1,264.869a1.2,1.2,0,0,0,1.2,1.2h7.467a1.2,1.2,0,0,0,1.2-1.2V257.4a1.2,1.2,0,0,0-1.2-1.194h-7.467a1.194,1.194,0,0,0-1.2,1.194Z" fill="#8b78b7"/>
          <path id="Path_151" data-name="Path 151" d="M330.76,266.4h-7.467a1.537,1.537,0,0,1-1.537-1.535V257.4a1.538,1.538,0,0,1,1.537-1.535h7.467A1.536,1.536,0,0,1,332.3,257.4v7.469A1.535,1.535,0,0,1,330.76,266.4Zm-7.467-9.858a.855.855,0,0,0-.855.854v7.469a.855.855,0,0,0,.855.854h7.467a.856.856,0,0,0,.855-.854V257.4a.856.856,0,0,0-.855-.854Z" fill="#8b78b7"/>
        </g>
        <g id="Group_110" data-name="Group 110">
          <path id="Path_152" data-name="Path 152" d="M307.39,264.869a1.2,1.2,0,0,0,1.2,1.2h7.468a1.2,1.2,0,0,0,1.2-1.2V257.4a1.2,1.2,0,0,0-1.2-1.194h-7.468a1.194,1.194,0,0,0-1.2,1.194Z" fill="#8b78b7"/>
          <path id="Path_153" data-name="Path 153" d="M316.053,266.4h-7.468a1.537,1.537,0,0,1-1.535-1.535V257.4a1.537,1.537,0,0,1,1.535-1.535h7.468a1.537,1.537,0,0,1,1.535,1.535v7.469A1.536,1.536,0,0,1,316.053,266.4Zm-7.468-9.858a.856.856,0,0,0-.855.854v7.469a.856.856,0,0,0,.855.854h7.468a.855.855,0,0,0,.854-.854V257.4a.855.855,0,0,0-.854-.854Z" fill="#8b78b7"/>
        </g>
        <g id="Group_111" data-name="Group 111">
          <path id="Path_154" data-name="Path 154" d="M292.683,264.869a1.2,1.2,0,0,0,1.194,1.2h7.468a1.2,1.2,0,0,0,1.194-1.2V257.4a1.194,1.194,0,0,0-1.194-1.194h-7.468a1.193,1.193,0,0,0-1.194,1.194Z" fill="#8b78b7"/>
          <path id="Path_155" data-name="Path 155" d="M301.346,266.4h-7.468a1.537,1.537,0,0,1-1.535-1.535V257.4a1.537,1.537,0,0,1,1.535-1.535h7.468a1.537,1.537,0,0,1,1.535,1.535v7.469A1.537,1.537,0,0,1,301.346,266.4Zm-7.469-9.858a.855.855,0,0,0-.854.854v7.469a.855.855,0,0,0,.854.854h7.468a.855.855,0,0,0,.854-.854V257.4a.854.854,0,0,0-.854-.854Z" fill="#8b78b7"/>
        </g>
        <g id="Group_112" data-name="Group 112">
          <path id="Path_156" data-name="Path 156" d="M277.975,264.869a1.2,1.2,0,0,0,1.2,1.2h7.467a1.2,1.2,0,0,0,1.2-1.2V257.4a1.194,1.194,0,0,0-1.2-1.194h-7.467a1.194,1.194,0,0,0-1.2,1.194Z" fill="#8b78b7"/>
          <path id="Path_157" data-name="Path 157" d="M286.638,266.4h-7.467a1.537,1.537,0,0,1-1.536-1.535V257.4a1.537,1.537,0,0,1,1.536-1.535h7.467a1.537,1.537,0,0,1,1.536,1.535v7.469A1.537,1.537,0,0,1,286.638,266.4Zm-7.467-9.858a.856.856,0,0,0-.855.854v7.469a.856.856,0,0,0,.855.854h7.467a.855.855,0,0,0,.854-.854V257.4a.855.855,0,0,0-.854-.854Z" fill="#8b78b7"/>
        </g>
        <g id="Group_113" data-name="Group 113">
          <path id="Path_158" data-name="Path 158" d="M263.268,264.869a1.2,1.2,0,0,0,1.2,1.2h7.468a1.2,1.2,0,0,0,1.2-1.2V257.4a1.194,1.194,0,0,0-1.2-1.194h-7.468a1.194,1.194,0,0,0-1.2,1.194Z" fill="#8b78b7"/>
          <path id="Path_159" data-name="Path 159" d="M271.931,266.4h-7.468a1.537,1.537,0,0,1-1.536-1.535V257.4a1.537,1.537,0,0,1,1.536-1.535h7.468a1.537,1.537,0,0,1,1.535,1.535v7.469A1.537,1.537,0,0,1,271.931,266.4Zm-7.468-9.858a.856.856,0,0,0-.855.854v7.469a.856.856,0,0,0,.855.854h7.468a.856.856,0,0,0,.855-.854V257.4a.856.856,0,0,0-.855-.854Z" fill="#8b78b7"/>
        </g>
        <g id="Group_114" data-name="Group 114">
          <path id="Path_160" data-name="Path 160" d="M248.561,264.869a1.2,1.2,0,0,0,1.2,1.2h7.467a1.2,1.2,0,0,0,1.2-1.2V257.4a1.194,1.194,0,0,0-1.2-1.194h-7.467a1.194,1.194,0,0,0-1.2,1.194v7.469Z" fill="#8b78b7"/>
          <path id="Path_161" data-name="Path 161" d="M257.224,266.4h-7.467a1.537,1.537,0,0,1-1.536-1.535V257.4a1.537,1.537,0,0,1,1.536-1.535h7.467a1.538,1.538,0,0,1,1.536,1.535v7.469A1.538,1.538,0,0,1,257.224,266.4Zm-7.468-9.858a.855.855,0,0,0-.854.854v7.469a.855.855,0,0,0,.854.854h7.467a.855.855,0,0,0,.855-.854V257.4a.855.855,0,0,0-.855-.854Z" fill="#8b78b7"/>
        </g>
        <g id="Group_115" data-name="Group 115">
          <path id="Path_162" data-name="Path 162" d="M233.854,264.869a1.2,1.2,0,0,0,1.194,1.2h7.468a1.2,1.2,0,0,0,1.2-1.2V257.4a1.194,1.194,0,0,0-1.2-1.194h-7.468a1.193,1.193,0,0,0-1.194,1.194Z" fill="#8b78b7"/>
          <path id="Path_163" data-name="Path 163" d="M242.517,266.4h-7.468a1.537,1.537,0,0,1-1.535-1.535V257.4a1.537,1.537,0,0,1,1.535-1.535h7.468a1.538,1.538,0,0,1,1.536,1.535v7.469A1.537,1.537,0,0,1,242.517,266.4Zm-7.468-9.858a.855.855,0,0,0-.854.854v7.469a.855.855,0,0,0,.854.854h7.468a.855.855,0,0,0,.854-.854V257.4a.855.855,0,0,0-.854-.854Z" fill="#8b78b7"/>
        </g>
        <g id="Group_116" data-name="Group 116">
          <path id="Path_164" data-name="Path 164" d="M213.866,264.869c0,.659.77,1.2,1.718,1.2h10.734c.949,0,1.718-.536,1.718-1.2V257.4c0-.66-.769-1.194-1.718-1.194H215.584c-.948,0-1.718.534-1.718,1.194Z" fill="#8b78b7"/>
          <path id="Path_165" data-name="Path 165" d="M226.318,266.4H215.584c-1.154,0-2.058-.675-2.058-1.535V257.4c0-.86.9-1.535,2.058-1.535h10.734c1.154,0,2.058.675,2.058,1.535v7.469C228.376,265.729,227.472,266.4,226.318,266.4Zm-10.735-9.858c-.746,0-1.377.392-1.377.854v7.469c0,.463.631.854,1.377.854h10.734c.747,0,1.377-.391,1.377-.854V257.4c0-.463-.631-.854-1.377-.854Z" fill="#8b78b7"/>
        </g>
      </g>
      <g id="Group_118" data-name="Group 118">
        <path id="Path_166" data-name="Path 166" d="M376.84,292.1a1.2,1.2,0,0,0,1.2,1.2H385.5a1.2,1.2,0,0,0,1.2-1.2v-7.468a1.2,1.2,0,0,0-1.2-1.194h-7.467a1.2,1.2,0,0,0-1.2,1.194Z" fill="#cdd0e0"/>
        <path id="Path_167" data-name="Path 167" d="M385.5,293.635h-7.467A1.538,1.538,0,0,1,376.5,292.1v-7.468a1.538,1.538,0,0,1,1.537-1.535H385.5a1.537,1.537,0,0,1,1.535,1.535V292.1A1.537,1.537,0,0,1,385.5,293.635Zm-7.466-9.858a.854.854,0,0,0-.855.854V292.1a.855.855,0,0,0,.855.855h7.467a.856.856,0,0,0,.854-.855v-7.468a.855.855,0,0,0-.854-.854Z" fill="#cdd0e0"/>
      </g>
      <g id="Group_119" data-name="Group 119">
        <path id="Path_168" data-name="Path 168" d="M362.133,292.1a1.2,1.2,0,0,0,1.2,1.2H370.8a1.2,1.2,0,0,0,1.2-1.2v-7.468a1.2,1.2,0,0,0-1.2-1.194h-7.467a1.2,1.2,0,0,0-1.2,1.194Z" fill="#cdd0e0"/>
        <path id="Path_169" data-name="Path 169" d="M370.8,293.635h-7.467a1.537,1.537,0,0,1-1.535-1.536v-7.468a1.537,1.537,0,0,1,1.535-1.535H370.8a1.538,1.538,0,0,1,1.537,1.535V292.1A1.538,1.538,0,0,1,370.8,293.635Zm-7.466-9.858a.855.855,0,0,0-.854.854V292.1a.855.855,0,0,0,.854.855H370.8a.855.855,0,0,0,.855-.855v-7.468a.855.855,0,0,0-.855-.854Z" fill="#cdd0e0"/>
      </g>
      <g id="Group_120" data-name="Group 120">
        <path id="Path_170" data-name="Path 170" d="M347.426,292.1a1.2,1.2,0,0,0,1.2,1.2h7.469a1.193,1.193,0,0,0,1.193-1.2v-7.468a1.194,1.194,0,0,0-1.193-1.194h-7.469a1.2,1.2,0,0,0-1.2,1.194Z" fill="#cdd0e0"/>
        <path id="Path_171" data-name="Path 171" d="M356.09,293.635h-7.469a1.536,1.536,0,0,1-1.535-1.536v-7.468a1.537,1.537,0,0,1,1.535-1.535h7.469a1.537,1.537,0,0,1,1.535,1.535V292.1A1.538,1.538,0,0,1,356.09,293.635Zm-7.468-9.858a.855.855,0,0,0-.854.854V292.1a.855.855,0,0,0,.854.855h7.469a.856.856,0,0,0,.854-.855v-7.468a.855.855,0,0,0-.854-.854Z" fill="#cdd0e0"/>
      </g>
      <g id="Group_121" data-name="Group 121">
        <path id="Path_172" data-name="Path 172" d="M332.719,292.1a1.2,1.2,0,0,0,1.2,1.2h7.469a1.2,1.2,0,0,0,1.193-1.2v-7.468a1.2,1.2,0,0,0-1.193-1.194h-7.469a1.2,1.2,0,0,0-1.2,1.194Z" fill="#cdd0e0"/>
        <path id="Path_173" data-name="Path 173" d="M341.383,293.635h-7.469a1.537,1.537,0,0,1-1.535-1.536v-7.468a1.537,1.537,0,0,1,1.535-1.535h7.469a1.537,1.537,0,0,1,1.535,1.535V292.1A1.538,1.538,0,0,1,341.383,293.635Zm-7.468-9.858a.855.855,0,0,0-.854.854V292.1a.855.855,0,0,0,.854.855h7.469a.856.856,0,0,0,.854-.855v-7.468a.855.855,0,0,0-.854-.854Z" fill="#cdd0e0"/>
      </g>
      <g id="Group_122" data-name="Group 122">
        <path id="Path_174" data-name="Path 174" d="M318.012,292.1a1.2,1.2,0,0,0,1.2,1.2h7.467a1.2,1.2,0,0,0,1.2-1.2v-7.468a1.2,1.2,0,0,0-1.2-1.194h-7.467a1.2,1.2,0,0,0-1.2,1.194Z" fill="#cdd0e0"/>
        <path id="Path_175" data-name="Path 175" d="M326.674,293.635h-7.467a1.537,1.537,0,0,1-1.535-1.536v-7.468a1.537,1.537,0,0,1,1.535-1.535h7.467a1.538,1.538,0,0,1,1.537,1.535V292.1A1.539,1.539,0,0,1,326.674,293.635Zm-7.466-9.858a.855.855,0,0,0-.854.854V292.1a.855.855,0,0,0,.854.855h7.467a.855.855,0,0,0,.855-.855v-7.468a.855.855,0,0,0-.855-.854Z" fill="#cdd0e0"/>
      </g>
      <g id="Group_123" data-name="Group 123">
        <path id="Path_176" data-name="Path 176" d="M303.3,292.1a1.2,1.2,0,0,0,1.2,1.2h7.468a1.194,1.194,0,0,0,1.194-1.2v-7.468a1.2,1.2,0,0,0-1.194-1.194H304.5a1.2,1.2,0,0,0-1.2,1.194Z" fill="#cdd0e0"/>
        <path id="Path_177" data-name="Path 177" d="M311.968,293.635H304.5a1.537,1.537,0,0,1-1.535-1.536v-7.468A1.537,1.537,0,0,1,304.5,283.1h7.468a1.537,1.537,0,0,1,1.536,1.535V292.1A1.538,1.538,0,0,1,311.968,293.635Zm-7.468-9.858a.854.854,0,0,0-.854.854V292.1a.855.855,0,0,0,.854.855h7.468a.856.856,0,0,0,.854-.855v-7.468a.855.855,0,0,0-.854-.854Z" fill="#cdd0e0"/>
      </g>
      <g id="Group_124" data-name="Group 124">
        <path id="Path_178" data-name="Path 178" d="M288.6,292.1a1.2,1.2,0,0,0,1.2,1.2h7.467a1.2,1.2,0,0,0,1.2-1.2v-7.468a1.2,1.2,0,0,0-1.2-1.194h-7.467a1.2,1.2,0,0,0-1.2,1.194Z" fill="#cdd0e0"/>
        <path id="Path_179" data-name="Path 179" d="M297.26,293.635h-7.467a1.537,1.537,0,0,1-1.535-1.536v-7.468a1.537,1.537,0,0,1,1.535-1.535h7.467a1.537,1.537,0,0,1,1.536,1.535V292.1A1.538,1.538,0,0,1,297.26,293.635Zm-7.467-9.858a.854.854,0,0,0-.854.854V292.1a.855.855,0,0,0,.854.855h7.467a.855.855,0,0,0,.854-.855v-7.468a.854.854,0,0,0-.854-.854Z" fill="#cdd0e0"/>
      </g>
      <g id="Group_129" data-name="Group 129">
        <g id="Group_125" data-name="Group 125">
          <path id="Path_180" data-name="Path 180" d="M273.891,292.1a1.2,1.2,0,0,0,1.2,1.2h7.468a1.2,1.2,0,0,0,1.2-1.2v-7.468a1.2,1.2,0,0,0-1.2-1.194h-7.468a1.2,1.2,0,0,0-1.2,1.194Z" fill="#cdd0e0"/>
          <path id="Path_181" data-name="Path 181" d="M282.554,293.635h-7.468a1.537,1.537,0,0,1-1.535-1.536v-7.468a1.537,1.537,0,0,1,1.535-1.535h7.468a1.537,1.537,0,0,1,1.535,1.535V292.1A1.538,1.538,0,0,1,282.554,293.635Zm-7.469-9.858a.855.855,0,0,0-.854.854V292.1a.856.856,0,0,0,.854.855h7.468a.856.856,0,0,0,.854-.855v-7.468a.855.855,0,0,0-.854-.854Z" fill="#cdd0e0"/>
        </g>
        <g id="Group_126" data-name="Group 126">
          <path id="Path_182" data-name="Path 182" d="M259.184,292.1a1.2,1.2,0,0,0,1.2,1.2h7.468a1.2,1.2,0,0,0,1.194-1.2v-7.468a1.2,1.2,0,0,0-1.194-1.194h-7.468a1.2,1.2,0,0,0-1.2,1.194Z" fill="#cdd0e0"/>
          <path id="Path_183" data-name="Path 183" d="M267.847,293.635h-7.468a1.538,1.538,0,0,1-1.536-1.536v-7.468a1.537,1.537,0,0,1,1.536-1.535h7.468a1.537,1.537,0,0,1,1.535,1.535V292.1A1.538,1.538,0,0,1,267.847,293.635Zm-7.468-9.858a.855.855,0,0,0-.854.854V292.1a.855.855,0,0,0,.854.855h7.468a.856.856,0,0,0,.854-.855v-7.468a.855.855,0,0,0-.854-.854Z" fill="#cdd0e0"/>
        </g>
        <g id="Group_127" data-name="Group 127">
          <path id="Path_184" data-name="Path 184" d="M244.477,292.1a1.2,1.2,0,0,0,1.2,1.2h7.467a1.2,1.2,0,0,0,1.2-1.2v-7.468a1.2,1.2,0,0,0-1.2-1.194h-7.467a1.2,1.2,0,0,0-1.2,1.194Z" fill="#cdd0e0"/>
          <path id="Path_185" data-name="Path 185" d="M253.139,293.635h-7.467a1.538,1.538,0,0,1-1.536-1.536v-7.468a1.537,1.537,0,0,1,1.536-1.535h7.467a1.537,1.537,0,0,1,1.536,1.535V292.1A1.538,1.538,0,0,1,253.139,293.635Zm-7.467-9.858a.855.855,0,0,0-.855.854V292.1a.856.856,0,0,0,.855.855h7.467a.857.857,0,0,0,.855-.855v-7.468a.856.856,0,0,0-.855-.854Z" fill="#cdd0e0"/>
        </g>
        <g id="Group_128" data-name="Group 128">
          <path id="Path_186" data-name="Path 186" d="M229.769,292.1a1.2,1.2,0,0,0,1.2,1.2h7.467a1.2,1.2,0,0,0,1.2-1.2v-7.468a1.2,1.2,0,0,0-1.2-1.194h-7.467a1.2,1.2,0,0,0-1.2,1.194Z" fill="#cdd0e0"/>
          <path id="Path_187" data-name="Path 187" d="M238.432,293.635h-7.467a1.537,1.537,0,0,1-1.535-1.536v-7.468a1.537,1.537,0,0,1,1.535-1.535h7.467a1.537,1.537,0,0,1,1.536,1.535V292.1A1.539,1.539,0,0,1,238.432,293.635Zm-7.468-9.858a.855.855,0,0,0-.854.854V292.1a.855.855,0,0,0,.854.855h7.467a.856.856,0,0,0,.855-.855v-7.468a.856.856,0,0,0-.855-.854Z" fill="#cdd0e0"/>
        </g>
      </g>
      <g id="Group_130" data-name="Group 130">
        <path id="Path_188" data-name="Path 188" d="M258.233,305.715a1.32,1.32,0,0,0,1.416,1.2h8.843a1.319,1.319,0,0,0,1.415-1.2v-7.469a1.319,1.319,0,0,0-1.415-1.194h-8.843a1.32,1.32,0,0,0-1.416,1.194Z" fill="#cdd0e0"/>
        <path id="Path_189" data-name="Path 189" d="M268.491,307.25h-8.843a1.658,1.658,0,0,1-1.756-1.535v-7.469a1.658,1.658,0,0,1,1.756-1.535h8.843a1.658,1.658,0,0,1,1.755,1.535v7.469A1.657,1.657,0,0,1,268.491,307.25Zm-8.843-9.857a.985.985,0,0,0-1.075.854v7.469a.985.985,0,0,0,1.075.854h8.843a.985.985,0,0,0,1.074-.854v-7.469a.984.984,0,0,0-1.074-.854Z" fill="#cdd0e0"/>
      </g>
      <g id="Group_131" data-name="Group 131">
        <path id="Path_190" data-name="Path 190" d="M243.526,305.715a1.2,1.2,0,0,0,1.2,1.2h7.468a1.2,1.2,0,0,0,1.194-1.2v-7.469a1.2,1.2,0,0,0-1.194-1.194h-7.468a1.2,1.2,0,0,0-1.2,1.194Z" fill="#cdd0e0"/>
        <path id="Path_191" data-name="Path 191" d="M252.189,307.25h-7.468a1.537,1.537,0,0,1-1.536-1.535v-7.469a1.537,1.537,0,0,1,1.536-1.535h7.468a1.537,1.537,0,0,1,1.535,1.535v7.469A1.536,1.536,0,0,1,252.189,307.25Zm-7.468-9.857a.856.856,0,0,0-.855.854v7.469a.856.856,0,0,0,.855.854h7.468a.856.856,0,0,0,.854-.854v-7.469a.855.855,0,0,0-.854-.854Z" fill="#cdd0e0"/>
      </g>
      <g id="Group_132" data-name="Group 132">
        <path id="Path_192" data-name="Path 192" d="M361.4,305.715a1.32,1.32,0,0,1-1.416,1.2h-8.842a1.318,1.318,0,0,1-1.414-1.2v-7.469a1.318,1.318,0,0,1,1.414-1.194h8.842a1.32,1.32,0,0,1,1.416,1.194Z" fill="#cdd0e0"/>
        <path id="Path_193" data-name="Path 193" d="M359.983,307.25h-8.842a1.658,1.658,0,0,1-1.756-1.535v-7.469a1.658,1.658,0,0,1,1.756-1.535h8.842a1.658,1.658,0,0,1,1.756,1.535v7.469A1.658,1.658,0,0,1,359.983,307.25Zm-8.842-9.857a.984.984,0,0,0-1.074.854v7.469a.984.984,0,0,0,1.074.854h8.842a.986.986,0,0,0,1.076-.854v-7.469a.985.985,0,0,0-1.076-.854Z" fill="#cdd0e0"/>
      </g>
      <g id="Group_133" data-name="Group 133">
        <path id="Path_194" data-name="Path 194" d="M376.106,305.715a1.2,1.2,0,0,1-1.2,1.2h-7.469a1.2,1.2,0,0,1-1.193-1.2v-7.469a1.194,1.194,0,0,1,1.193-1.194h7.469a1.2,1.2,0,0,1,1.2,1.194Z" fill="#cdd0e0"/>
        <path id="Path_195" data-name="Path 195" d="M374.911,307.25h-7.469a1.537,1.537,0,0,1-1.535-1.535v-7.469a1.537,1.537,0,0,1,1.535-1.535h7.469a1.536,1.536,0,0,1,1.535,1.535v7.469A1.536,1.536,0,0,1,374.911,307.25Zm-7.469-9.857a.855.855,0,0,0-.854.854v7.469a.855.855,0,0,0,.854.854h7.469a.855.855,0,0,0,.855-.854v-7.469a.855.855,0,0,0-.855-.854Z" fill="#cdd0e0"/>
      </g>
      <g id="Group_134" data-name="Group 134">
        <path id="Path_196" data-name="Path 196" d="M228.819,305.715a1.2,1.2,0,0,0,1.2,1.2h7.467a1.2,1.2,0,0,0,1.2-1.2v-7.469a1.2,1.2,0,0,0-1.2-1.194h-7.467a1.2,1.2,0,0,0-1.2,1.194Z" fill="#cdd0e0"/>
        <path id="Path_197" data-name="Path 197" d="M237.481,307.25h-7.467a1.537,1.537,0,0,1-1.536-1.535v-7.469a1.537,1.537,0,0,1,1.536-1.535h7.467a1.538,1.538,0,0,1,1.536,1.535v7.469A1.537,1.537,0,0,1,237.481,307.25Zm-7.467-9.857a.855.855,0,0,0-.854.854v7.469a.855.855,0,0,0,.854.854h7.467a.856.856,0,0,0,.855-.854v-7.469a.856.856,0,0,0-.855-.854Z" fill="#cdd0e0"/>
      </g>
      <g id="Group_135" data-name="Group 135">
        <path id="Path_198" data-name="Path 198" d="M214.112,305.715a1.2,1.2,0,0,0,1.194,1.2h7.468a1.194,1.194,0,0,0,1.2-1.2v-7.469a1.2,1.2,0,0,0-1.2-1.194h-7.468a1.2,1.2,0,0,0-1.194,1.194Z" fill="#cdd0e0"/>
        <path id="Path_199" data-name="Path 199" d="M222.774,307.25h-7.468a1.536,1.536,0,0,1-1.535-1.535v-7.469a1.537,1.537,0,0,1,1.535-1.535h7.468a1.538,1.538,0,0,1,1.536,1.535v7.469A1.537,1.537,0,0,1,222.774,307.25Zm-7.467-9.857a.855.855,0,0,0-.854.854v7.469a.855.855,0,0,0,.854.854h7.468a.856.856,0,0,0,.855-.854v-7.469a.855.855,0,0,0-.855-.854Z" fill="#cdd0e0"/>
      </g>
      <g id="Group_136" data-name="Group 136">
        <path id="Path_200" data-name="Path 200" d="M213.866,292.1a1.3,1.3,0,0,0,1.388,1.2h8.671a1.3,1.3,0,0,0,1.388-1.2v-7.468a1.3,1.3,0,0,0-1.388-1.194h-8.671a1.3,1.3,0,0,0-1.388,1.194Z" fill="#cdd0e0"/>
        <path id="Path_201" data-name="Path 201" d="M223.925,293.635h-8.671a1.642,1.642,0,0,1-1.728-1.536v-7.468a1.642,1.642,0,0,1,1.728-1.535h8.671a1.642,1.642,0,0,1,1.728,1.535V292.1A1.643,1.643,0,0,1,223.925,293.635Zm-8.672-9.858a.967.967,0,0,0-1.047.854V292.1a.967.967,0,0,0,1.047.855h8.671a.967.967,0,0,0,1.047-.855v-7.468a.967.967,0,0,0-1.047-.854Z" fill="#cdd0e0"/>
      </g>
      <g id="Group_137" data-name="Group 137">
        <path id="Path_202" data-name="Path 202" d="M420.2,257.4a1.194,1.194,0,0,0-1.2-1.194h-7.467a1.194,1.194,0,0,0-1.2,1.194v7.469a1.2,1.2,0,0,0,1.2,1.2h1.67v11.557c0,1.125.377,2.037.842,2.037h5.25c.465,0,.842-.912.842-2.037v-12.4a1.257,1.257,0,0,0,.059-.355V257.4Z" fill="#cdd0e0"/>
        <path id="Path_203" data-name="Path 203" d="M419.3,280h-5.25c-.775,0-1.18-1.2-1.18-2.378V266.4h-1.332A1.537,1.537,0,0,1,410,264.869V257.4a1.538,1.538,0,0,1,1.537-1.535H419a1.537,1.537,0,0,1,1.535,1.535v7.469a1.447,1.447,0,0,1-.061.4v12.348C420.477,278.8,420.073,280,419.3,280Zm-7.761-23.453a.855.855,0,0,0-.855.854v7.469a.855.855,0,0,0,.855.854h2.012v11.9c0,1.113.371,1.7.5,1.7h5.25c.129,0,.5-.584.5-1.7l.016-12.5a.836.836,0,0,0,.045-.254V257.4a.856.856,0,0,0-.855-.854Z" fill="#cdd0e0"/>
      </g>
      <g id="Group_138" data-name="Group 138">
        <path id="Path_204" data-name="Path 204" d="M399.038,278.484a1.194,1.194,0,0,0,1.193,1.194H407.7a1.194,1.194,0,0,0,1.2-1.194v-7.469a1.2,1.2,0,0,0-1.2-1.194h-7.469a1.194,1.194,0,0,0-1.193,1.194Z" fill="#cdd0e0"/>
        <path id="Path_205" data-name="Path 205" d="M407.7,280.02h-7.469a1.535,1.535,0,0,1-1.533-1.535v-7.469a1.536,1.536,0,0,1,1.533-1.535H407.7a1.536,1.536,0,0,1,1.535,1.535v7.469A1.537,1.537,0,0,1,407.7,280.02Zm-7.469-9.858a.855.855,0,0,0-.854.854v7.469a.855.855,0,0,0,.854.854H407.7a.855.855,0,0,0,.854-.854v-7.469a.855.855,0,0,0-.854-.854Z" fill="#cdd0e0"/>
      </g>
      <g id="Group_139" data-name="Group 139">
        <path id="Path_206" data-name="Path 206" d="M384.329,278.484a1.194,1.194,0,0,0,1.2,1.194h7.469a1.192,1.192,0,0,0,1.193-1.194v-7.469a1.193,1.193,0,0,0-1.193-1.194h-7.469a1.2,1.2,0,0,0-1.2,1.194Z" fill="#cdd0e0"/>
        <path id="Path_207" data-name="Path 207" d="M392.993,280.02h-7.469a1.535,1.535,0,0,1-1.533-1.535v-7.469a1.536,1.536,0,0,1,1.533-1.535h7.469a1.537,1.537,0,0,1,1.535,1.535v7.469A1.538,1.538,0,0,1,392.993,280.02Zm-7.469-9.858a.855.855,0,0,0-.854.854v7.469a.855.855,0,0,0,.854.854h7.469a.855.855,0,0,0,.854-.854v-7.469a.855.855,0,0,0-.854-.854Z" fill="#cdd0e0"/>
      </g>
      <g id="Group_140" data-name="Group 140">
        <path id="Path_208" data-name="Path 208" d="M369.622,278.484a1.194,1.194,0,0,0,1.2,1.194h7.469a1.192,1.192,0,0,0,1.193-1.194v-7.469a1.193,1.193,0,0,0-1.193-1.194h-7.469a1.2,1.2,0,0,0-1.2,1.194Z" fill="#cdd0e0"/>
        <path id="Path_209" data-name="Path 209" d="M378.286,280.02h-7.469a1.537,1.537,0,0,1-1.535-1.535v-7.469a1.537,1.537,0,0,1,1.535-1.535h7.469a1.536,1.536,0,0,1,1.535,1.535v7.469A1.537,1.537,0,0,1,378.286,280.02Zm-7.469-9.858a.855.855,0,0,0-.854.854v7.469a.855.855,0,0,0,.854.854h7.469a.855.855,0,0,0,.854-.854v-7.469a.855.855,0,0,0-.854-.854Z" fill="#cdd0e0"/>
      </g>
      <g id="Group_141" data-name="Group 141">
        <path id="Path_210" data-name="Path 210" d="M354.915,278.484a1.194,1.194,0,0,0,1.2,1.194h7.469a1.194,1.194,0,0,0,1.2-1.194v-7.469a1.2,1.2,0,0,0-1.2-1.194H356.11a1.2,1.2,0,0,0-1.2,1.194Z" fill="#c778b2"/>
        <path id="Path_211" data-name="Path 211" d="M363.579,280.02H356.11a1.537,1.537,0,0,1-1.535-1.535v-7.469a1.537,1.537,0,0,1,1.535-1.535h7.469a1.537,1.537,0,0,1,1.535,1.535v7.469A1.538,1.538,0,0,1,363.579,280.02Zm-7.469-9.858a.855.855,0,0,0-.854.854v7.469a.855.855,0,0,0,.854.854h7.469a.855.855,0,0,0,.854-.854v-7.469a.855.855,0,0,0-.854-.854Z" fill="#c778b2"/>
      </g>
      <g id="Group_142" data-name="Group 142">
        <path id="Path_212" data-name="Path 212" d="M340.208,278.484a1.194,1.194,0,0,0,1.2,1.194h7.469a1.194,1.194,0,0,0,1.193-1.194v-7.469a1.194,1.194,0,0,0-1.193-1.194H341.4a1.2,1.2,0,0,0-1.2,1.194Z" fill="#c778b2"/>
        <path id="Path_213" data-name="Path 213" d="M348.872,280.02H341.4a1.537,1.537,0,0,1-1.535-1.535v-7.469a1.537,1.537,0,0,1,1.535-1.535h7.469a1.537,1.537,0,0,1,1.535,1.535v7.469A1.538,1.538,0,0,1,348.872,280.02Zm-7.469-9.858a.856.856,0,0,0-.855.854v7.469a.856.856,0,0,0,.855.854h7.469a.856.856,0,0,0,.855-.854v-7.469a.856.856,0,0,0-.855-.854Z" fill="#c778b2"/>
      </g>
      <g id="Group_143" data-name="Group 143">
        <path id="Path_214" data-name="Path 214" d="M325.5,278.484a1.194,1.194,0,0,0,1.193,1.194h7.469a1.194,1.194,0,0,0,1.2-1.194v-7.469a1.2,1.2,0,0,0-1.2-1.194H326.7a1.194,1.194,0,0,0-1.193,1.194Z" fill="#cdd0e0"/>
        <path id="Path_215" data-name="Path 215" d="M334.165,280.02H326.7a1.537,1.537,0,0,1-1.535-1.535v-7.469a1.537,1.537,0,0,1,1.535-1.535h7.469a1.537,1.537,0,0,1,1.535,1.535v7.469A1.538,1.538,0,0,1,334.165,280.02Zm-7.469-9.858a.856.856,0,0,0-.855.854v7.469a.856.856,0,0,0,.855.854h7.469a.856.856,0,0,0,.855-.854v-7.469a.856.856,0,0,0-.855-.854Z" fill="#cdd0e0"/>
      </g>
      <g id="Group_144" data-name="Group 144">
        <path id="Path_216" data-name="Path 216" d="M310.793,278.484a1.194,1.194,0,0,0,1.2,1.194h7.469a1.194,1.194,0,0,0,1.2-1.194v-7.469a1.2,1.2,0,0,0-1.2-1.194h-7.469a1.2,1.2,0,0,0-1.2,1.194Z" fill="#cdd0e0"/>
        <path id="Path_217" data-name="Path 217" d="M319.458,280.02h-7.469a1.537,1.537,0,0,1-1.535-1.535v-7.469a1.537,1.537,0,0,1,1.535-1.535h7.469a1.537,1.537,0,0,1,1.535,1.535v7.469A1.538,1.538,0,0,1,319.458,280.02Zm-7.469-9.858a.854.854,0,0,0-.854.854v7.469a.854.854,0,0,0,.854.854h7.469a.855.855,0,0,0,.854-.854v-7.469a.855.855,0,0,0-.854-.854Z" fill="#cdd0e0"/>
      </g>
      <g id="Group_145" data-name="Group 145">
        <path id="Path_218" data-name="Path 218" d="M296.086,278.484a1.194,1.194,0,0,0,1.2,1.194h7.467a1.194,1.194,0,0,0,1.2-1.194v-7.469a1.2,1.2,0,0,0-1.2-1.194h-7.467a1.194,1.194,0,0,0-1.2,1.194Z" fill="#cdd0e0"/>
        <path id="Path_219" data-name="Path 219" d="M304.749,280.02h-7.467a1.536,1.536,0,0,1-1.535-1.535v-7.469a1.537,1.537,0,0,1,1.535-1.535h7.467a1.537,1.537,0,0,1,1.536,1.535v7.469A1.537,1.537,0,0,1,304.749,280.02Zm-7.467-9.858a.854.854,0,0,0-.854.854v7.469a.855.855,0,0,0,.854.854h7.467a.855.855,0,0,0,.854-.854v-7.469a.855.855,0,0,0-.854-.854Z" fill="#cdd0e0"/>
      </g>
      <g id="Group_146" data-name="Group 146">
        <path id="Path_220" data-name="Path 220" d="M281.379,278.484a1.2,1.2,0,0,0,1.2,1.194h7.467a1.193,1.193,0,0,0,1.2-1.194v-7.469a1.194,1.194,0,0,0-1.2-1.194h-7.467a1.2,1.2,0,0,0-1.2,1.194Z" fill="#cdd0e0"/>
        <path id="Path_221" data-name="Path 221" d="M290.042,280.02h-7.467a1.537,1.537,0,0,1-1.536-1.535v-7.469a1.537,1.537,0,0,1,1.536-1.535h7.467a1.538,1.538,0,0,1,1.536,1.535v7.469A1.538,1.538,0,0,1,290.042,280.02Zm-7.467-9.858a.855.855,0,0,0-.855.854v7.469a.856.856,0,0,0,.855.854h7.467a.855.855,0,0,0,.854-.854v-7.469a.855.855,0,0,0-.854-.854Z" fill="#cdd0e0"/>
      </g>
      <g id="Group_147" data-name="Group 147">
        <path id="Path_222" data-name="Path 222" d="M266.672,278.484a1.194,1.194,0,0,0,1.2,1.194h7.468a1.194,1.194,0,0,0,1.194-1.194v-7.469a1.2,1.2,0,0,0-1.194-1.194h-7.468a1.2,1.2,0,0,0-1.2,1.194Z" fill="#cdd0e0"/>
        <path id="Path_223" data-name="Path 223" d="M275.335,280.02h-7.468a1.537,1.537,0,0,1-1.536-1.535v-7.469a1.537,1.537,0,0,1,1.536-1.535h7.468a1.537,1.537,0,0,1,1.535,1.535v7.469A1.537,1.537,0,0,1,275.335,280.02Zm-7.467-9.858a.855.855,0,0,0-.855.854v7.469a.855.855,0,0,0,.855.854h7.468a.855.855,0,0,0,.854-.854v-7.469a.855.855,0,0,0-.854-.854Z" fill="#cdd0e0"/>
      </g>
      <g id="Group_148" data-name="Group 148">
        <path id="Path_224" data-name="Path 224" d="M251.965,278.484a1.2,1.2,0,0,0,1.2,1.194h7.467a1.194,1.194,0,0,0,1.2-1.194v-7.469a1.2,1.2,0,0,0-1.2-1.194h-7.467a1.2,1.2,0,0,0-1.2,1.194Z" fill="#cdd0e0"/>
        <path id="Path_225" data-name="Path 225" d="M260.628,280.02h-7.467a1.537,1.537,0,0,1-1.536-1.535v-7.469a1.537,1.537,0,0,1,1.536-1.535h7.467a1.538,1.538,0,0,1,1.536,1.535v7.469A1.538,1.538,0,0,1,260.628,280.02Zm-7.467-9.858a.855.855,0,0,0-.855.854v7.469a.856.856,0,0,0,.855.854h7.467a.855.855,0,0,0,.854-.854v-7.469a.855.855,0,0,0-.854-.854Z" fill="#cdd0e0"/>
      </g>
      <g id="Group_149" data-name="Group 149">
        <path id="Path_226" data-name="Path 226" d="M237.258,278.484a1.194,1.194,0,0,0,1.194,1.194h7.468a1.193,1.193,0,0,0,1.2-1.194v-7.469a1.2,1.2,0,0,0-1.2-1.194h-7.468a1.2,1.2,0,0,0-1.194,1.194Z" fill="#cdd0e0"/>
        <path id="Path_227" data-name="Path 227" d="M245.92,280.02h-7.468a1.536,1.536,0,0,1-1.535-1.535v-7.469a1.537,1.537,0,0,1,1.535-1.535h7.468a1.538,1.538,0,0,1,1.536,1.535v7.469A1.537,1.537,0,0,1,245.92,280.02Zm-7.467-9.858a.855.855,0,0,0-.854.854v7.469a.855.855,0,0,0,.854.854h7.468a.855.855,0,0,0,.855-.854v-7.469a.855.855,0,0,0-.855-.854Z" fill="#cdd0e0"/>
      </g>
      <g id="Group_150" data-name="Group 150">
        <path id="Path_228" data-name="Path 228" d="M213.866,278.484c0,.66,1.009,1.194,2.255,1.194h14.086c1.244,0,2.254-.534,2.254-1.194v-7.469c0-.659-1.01-1.194-2.254-1.194H216.121c-1.246,0-2.255.535-2.255,1.194Z" fill="#cdd0e0"/>
        <path id="Path_229" data-name="Path 229" d="M230.207,280.02H216.121c-1.456,0-2.6-.675-2.6-1.535v-7.469c0-.861,1.14-1.535,2.6-1.535h14.086c1.454,0,2.6.674,2.6,1.535v7.469C232.8,279.345,231.661,280.02,230.207,280.02Zm-14.086-9.858c-1.1,0-1.914.45-1.914.854v7.469c0,.4.818.854,1.914.854h14.086c1.1,0,1.914-.451,1.914-.854v-7.469c0-.4-.818-.854-1.914-.854Z" fill="#cdd0e0"/>
      </g>
      <g id="Group_151" data-name="Group 151">
        <path id="Path_230" data-name="Path 230" d="M420.444,292.119a1.358,1.358,0,0,1-1.406,1.3H392.8a1.358,1.358,0,0,1-1.406-1.3v-7.38a1.358,1.358,0,0,1,1.406-1.3h26.234a1.358,1.358,0,0,1,1.406,1.3Z" fill="#67cbf4"/>
        <path id="Path_231" data-name="Path 231" d="M419.038,293.762H392.8a1.7,1.7,0,0,1-1.746-1.643v-7.38a1.7,1.7,0,0,1,1.746-1.644h26.234a1.7,1.7,0,0,1,1.746,1.644v7.38A1.7,1.7,0,0,1,419.038,293.762ZM392.8,283.777a1.02,1.02,0,0,0-1.066.962v7.38a1.021,1.021,0,0,0,1.066.961h26.234a1.017,1.017,0,0,0,1.064-.961v-7.38a1.017,1.017,0,0,0-1.064-.962Z" fill="#67cbf4"/>
      </g>
      <g id="Group_152" data-name="Group 152">
        <path id="Path_232" data-name="Path 232" d="M345.106,305.734a1.333,1.333,0,0,1-1.363,1.3H276.12a1.332,1.332,0,0,1-1.362-1.3v-7.38a1.333,1.333,0,0,1,1.362-1.3h67.623a1.334,1.334,0,0,1,1.363,1.3Z" fill="url(#linear-gradient)"/>
        <path id="Path_233" data-name="Path 233" d="M343.743,307.377H276.12a1.676,1.676,0,0,1-1.7-1.643v-7.38a1.677,1.677,0,0,1,1.7-1.644h67.623a1.676,1.676,0,0,1,1.7,1.644v7.38A1.676,1.676,0,0,1,343.743,307.377Zm-67.623-9.984a.994.994,0,0,0-1.021.962v7.38a.994.994,0,0,0,1.021.961h67.623a1,1,0,0,0,1.023-.961v-7.38a1,1,0,0,0-1.023-.962Z" fill="url(#linear-gradient)"/>
      </g>
    </g>
    <g id="Group_156" data-name="Group 156">
      <path id="Path_234" data-name="Path 234" d="M507.11,287.116a20,20,0,0,1-20,20h-6.5a20,20,0,0,1-20-20v-47a20,20,0,0,1,20-20h6.5a20,20,0,0,1,20,20Z" fill="url(#linear-gradient-4)"/>
      <g id="Group_154" data-name="Group 154">
        <path id="Path_235" data-name="Path 235" d="M486.693,307.616h-6.5a21.525,21.525,0,0,1-21.5-21.5v-47a21.525,21.525,0,0,1,21.5-21.5h6.5a21.525,21.525,0,0,1,21.5,21.5v47A21.524,21.524,0,0,1,486.693,307.616Zm-6.5-87a18.521,18.521,0,0,0-18.5,18.5v47a18.521,18.521,0,0,0,18.5,18.5h6.5a18.521,18.521,0,0,0,18.5-18.5v-47a18.521,18.521,0,0,0-18.5-18.5Z" fill="#cdd0e0"/>
      </g>
      <g id="Group_155" data-name="Group 155">
        <path id="Path_236" data-name="Path 236" d="M483.445,290.105a5.833,5.833,0,1,1,5.832-5.833A5.839,5.839,0,0,1,483.445,290.105Zm0-8.665a2.833,2.833,0,1,0,2.832,2.832A2.836,2.836,0,0,0,483.445,281.44Z" fill="#cdd0e0"/>
      </g>
    </g>
    <g id="Group_157" data-name="Group 157">
      <path id="Path_237" data-name="Path 237" d="M133.075,220.832a42.543,42.543,0,1,0,42.542,42.543A42.591,42.591,0,0,0,133.075,220.832Z" fill="#fff"/>
      <path id="Path_238" data-name="Path 238" d="M133.007,218.588a44.962,44.962,0,1,0,44.962,44.961A45.011,45.011,0,0,0,133.007,218.588Zm0,86.856a41.9,41.9,0,1,1,41.9-41.9A41.943,41.943,0,0,1,133.007,305.444Z" fill="#cdd0e0"/>
      <path id="Path_239" data-name="Path 239" d="M142.689,254.666a23.975,23.975,0,1,0,23.975,23.975A24,24,0,0,0,142.689,254.666Z" fill="#cdd0e0"/>
      <path id="Path_240" data-name="Path 240" d="M108.778,264.434a3.794,3.794,0,0,1-3.793,3.793h-7.3a3.793,3.793,0,0,1-3.793-3.793h0a3.794,3.794,0,0,1,3.793-3.8h7.3a3.8,3.8,0,0,1,3.793,3.8Z" fill="#fff"/>
      <path id="Path_241" data-name="Path 241" d="M104.984,259.105h-7.3a5.327,5.327,0,1,0,0,10.654h7.3a5.327,5.327,0,1,0,0-10.654Zm0,7.588h-7.3a2.261,2.261,0,0,1,0-4.522h7.3a2.261,2.261,0,0,1,0,4.522Z" fill="#cdd0e0"/>
      <path id="Path_242" data-name="Path 242" d="M132.758,235.779a27.475,27.475,0,1,0,27.474,27.475A27.506,27.506,0,0,0,132.758,235.779Z" fill="#fff"/>
      <path id="Path_243" data-name="Path 243" d="M132.712,239.6a23.658,23.658,0,1,0,23.657,23.658A23.685,23.685,0,0,0,132.712,239.6Z" fill="url(#radial-gradient)"/>
      <path id="Path_244" data-name="Path 244" d="M132.712,233.951a29.3,29.3,0,1,0,29.3,29.3A29.337,29.337,0,0,0,132.712,233.951Zm0,55.539a26.236,26.236,0,1,1,26.236-26.236A26.267,26.267,0,0,1,132.712,289.49Z" fill="#cdd0e0"/>
    </g>
    <g id="Group_170" data-name="Group 170">
      <g id="Group_160" data-name="Group 160">
        <g id="Group_158" data-name="Group 158">
          <path id="Path_245" data-name="Path 245" d="M61.509,325.364a2.878,2.878,0,0,1-5-1.852l-.626-20.037a2.879,2.879,0,1,1,5.756-.18l.627,20.037A2.869,2.869,0,0,1,61.509,325.364ZM57.45,302.191a1.761,1.761,0,0,0-.462,1.249l.627,20.037a1.769,1.769,0,0,0,3.537-.11l-.627-20.038a1.77,1.77,0,0,0-3.075-1.138Z" fill="#cdd0e0"/>
        </g>
        <g id="Group_159" data-name="Group 159">
          <path id="Path_246" data-name="Path 246" d="M57.922,318.536l-.6-19.176a1.888,1.888,0,0,1,3.775-.118l.6,19.164.871-.029-.6-19.162a2.76,2.76,0,0,0-5.518.173l.6,19.18Z" fill="#cdd0e0"/>
        </g>
      </g>
      <g id="Group_163" data-name="Group 163">
        <g id="Group_161" data-name="Group 161">
          <path id="Path_247" data-name="Path 247" d="M45.931,314.792a2.88,2.88,0,0,1-4.739-3.154l8.43-18.188a2.833,2.833,0,0,1,.487-.732,2.88,2.88,0,0,1,4.738,3.154l-8.43,18.188A2.9,2.9,0,0,1,45.931,314.792Zm5-21.327a1.779,1.779,0,0,0-.3.451L42.2,312.1a1.77,1.77,0,0,0,2.911,1.939,1.81,1.81,0,0,0,.3-.451L53.84,295.4a1.77,1.77,0,0,0-2.912-1.939Z" fill="#cdd0e0"/>
        </g>
        <g id="Group_162" data-name="Group 162">
          <path id="Path_248" data-name="Path 248" d="M44.691,307.826l8.067-17.406a1.889,1.889,0,1,1,3.427,1.588L48.123,309.4l.791.366,8.061-17.395a2.76,2.76,0,0,0-5.009-2.321L43.9,307.463Z" fill="#cdd0e0"/>
        </g>
      </g>
      <g id="Group_166" data-name="Group 166">
        <g id="Group_164" data-name="Group 164">
          <path id="Path_249" data-name="Path 249" d="M93.954,328.848a2.86,2.86,0,0,1-2.939.82l-19.234-5.651a2.88,2.88,0,1,1,1.624-5.526l19.234,5.652a2.881,2.881,0,0,1,1.315,4.705Zm-22.669-8.787a1.771,1.771,0,0,0,.809,2.891L91.328,328.6a1.76,1.76,0,0,0,1.806-.5,1.737,1.737,0,0,0,.39-.694,1.771,1.771,0,0,0-1.2-2.2l-19.233-5.652A1.758,1.758,0,0,0,71.285,320.061Z" fill="#cdd0e0"/>
        </g>
        <g id="Group_165" data-name="Group 165">
          <path id="Path_250" data-name="Path 250" d="M86.729,326.77l-18.406-5.408a1.888,1.888,0,1,1,1.064-3.624l18.395,5.406.245-.837-18.393-5.4a2.76,2.76,0,1,0-1.557,5.3l18.411,5.41C86.566,327.331,86.647,327.053,86.729,326.77Z" fill="#cdd0e0"/>
        </g>
      </g>
      <g id="Group_169" data-name="Group 169">
        <g id="Group_167" data-name="Group 167">
          <path id="Path_251" data-name="Path 251" d="M80.75,304.285a2.878,2.878,0,0,1-4.578-.429l-10.52-17.065a2.879,2.879,0,1,1,4.9-3.023l10.521,17.065A2.888,2.888,0,0,1,80.75,304.285Zm-13.955-20.2a1.776,1.776,0,0,0-.2,2.121l10.52,17.065a1.769,1.769,0,0,0,2.435.577,1.733,1.733,0,0,0,.379-.313,1.776,1.776,0,0,0,.2-2.121L69.608,284.351a1.769,1.769,0,0,0-2.434-.578A1.785,1.785,0,0,0,66.795,284.086Z" fill="#cdd0e0"/>
        </g>
        <g id="Group_168" data-name="Group 168">
          <path id="Path_252" data-name="Path 252" d="M74.923,298.833,64.855,282.5a1.889,1.889,0,0,1,3.215-1.983l10.062,16.32.741-.458-10.06-16.318a2.76,2.76,0,1,0-4.7,2.9L74.184,299.3Z" fill="#cdd0e0"/>
        </g>
      </g>
    </g>
    <g id="Group_171" data-name="Group 171">
      <rect id="Rectangle_39" data-name="Rectangle 39" width="8.662" height="105.175" transform="translate(496.096 165.479) rotate(-33.696)" fill="#fff"/>
      <path id="Path_253" data-name="Path 253" d="M521.261,186.991l-17.671-26.5-7.207,4.806,17.681,26.517C516.374,190.26,518.808,188.63,521.261,186.991Z" fill="#5e4b8b"/>
      <rect id="Rectangle_40" data-name="Rectangle 40" width="5.814" height="6.211" transform="matrix(0.832, -0.555, 0.555, 0.832, 556.098, 251.898)" fill="#5e4b8b"/>
      <path id="Path_254" data-name="Path 254" d="M564.495,248.507l-40.4-60.589.416-.278-20.271-30.4-11.107,7.406,2.053,3.078-4.646,3.1,16.594,24.885,4.646-3.1,1.641,2.461.415-.279,40.385,60.566Zm-64.862-82.562,3.308-2.205,15.071,22.6c-1.114.745-2.219,1.484-3.3,2.211Zm21.4,24.022,38.353,57.518-4.139,2.76L516.9,192.735Q518.927,191.372,521.029,189.967Zm-12.873.627-12.5-18.75,1.578-1.053,12.5,18.75Z" fill="#cdd0e0"/>
    </g>
  </g>
</svg>
